# Blender 4.0.2
# www.blender.org
mtllib dager.mtl
o Cube
v 6.062504 0.053947 -0.533914
v 6.062504 -0.053947 -0.533914
v 6.062504 0.053947 0.533914
v 6.062504 -0.053947 0.533914
v -6.062504 0.706947 -1.012511
v -6.062504 -0.706947 -1.012511
v -6.062504 0.706947 1.012511
v -6.062504 -0.706947 1.012511
v -6.330411 -0.856142 0.000000
v 8.241681 0.018762 0.000000
v -6.330411 0.856142 0.000000
v 8.241681 -0.018762 0.000000
v -1.460082 -0.552987 -0.805194
v -1.460082 0.552987 0.805194
v -1.460082 -0.552987 0.805194
v -1.460082 0.552987 -0.805194
v -1.460082 -0.552987 0.000000
v -1.460082 0.552987 0.000000
v -4.960596 -0.706947 -0.805194
v -4.960596 0.706947 0.805194
v -4.960596 -0.706947 0.000000
v -4.960596 -0.706947 0.805194
v -4.960596 0.706947 -0.805194
v -4.960596 0.706947 0.000000
v -4.172084 -0.224653 0.556652
v -4.172084 0.224653 -0.556652
v -4.164805 0.516365 0.000000
v -4.172084 -0.224653 -0.556652
v -4.172084 0.224653 0.556652
v -4.164805 -0.516365 0.000000
v -1.670757 -0.224653 0.498351
v -1.670757 0.224653 -0.498351
v -1.667118 0.526112 0.000000
v -1.670757 -0.224653 -0.498351
v -1.670757 0.224653 0.498351
v -1.667118 -0.526112 0.000000
v -2.921421 -0.224653 -0.618788
v -2.921421 0.224653 0.618788
v -2.915962 -0.503646 0.000000
v -2.921421 -0.224653 0.618788
v -2.921421 0.224653 -0.618788
v -2.915962 0.503646 0.000000
v -0.761263 -0.639875 0.805194
v -0.761263 0.639875 -0.805194
v -0.761263 0.639875 0.000000
v -0.761263 -0.639875 -0.805194
v -0.761263 0.639875 0.805194
v -0.761263 -0.639875 0.000000
v -0.239994 -0.102958 0.504333
v -0.239994 0.102958 -0.504333
v -0.239994 0.224653 0.000000
v -0.239994 -0.102958 -0.504333
v -0.239994 0.102958 0.504333
v -0.239994 -0.224653 0.000000
vn 0.0661 0.9952 0.0719
vn 0.1849 -0.0000 0.9828
vn -0.9667 -0.0000 -0.2558
vn 0.0169 -0.9929 0.1182
vn 0.2380 -0.0000 0.9713
vn -0.0047 -0.0000 -1.0000
vn 0.2380 -0.0000 -0.9713
vn 0.0169 -0.9929 -0.1182
vn -0.9667 -0.0000 0.2558
vn 0.0661 0.9952 -0.0719
vn -0.1234 0.9924 -0.0000
vn -0.7045 -0.6919 -0.1580
vn -0.8244 -0.0000 -0.5660
vn -0.7045 -0.6919 0.1580
vn -0.0000 -0.0000 1.0000
vn 0.0661 -0.9952 0.0719
vn 0.1849 -0.0000 -0.9828
vn 0.0661 -0.9952 -0.0719
vn 0.4091 0.8918 -0.1932
vn 0.3006 -0.0000 0.9537
vn 0.4091 0.8918 0.1932
vn -0.0063 0.8996 0.4367
vn -0.0496 -0.0000 0.9988
vn -0.0063 0.8996 -0.4367
vn 0.4091 -0.8918 0.1932
vn 0.3006 -0.0000 -0.9537
vn 0.4091 -0.8918 -0.1932
vn -0.7045 0.6919 -0.1580
vn -0.8244 -0.0000 0.5660
vn -0.7045 0.6919 0.1580
vn 0.0142 -0.8872 0.4611
vn 0.0959 -0.0000 -0.9954
vn 0.0142 -0.8872 -0.4611
vn -0.0063 -0.8996 -0.4367
vn -0.0496 -0.0000 -0.9988
vn -0.0063 -0.8996 0.4367
vn 0.0142 0.8872 -0.4611
vn 0.0959 -0.0000 0.9954
vn 0.0142 0.8872 0.4611
vn 0.6834 0.7269 0.0676
vn 0.4999 -0.0000 0.8661
vn 0.6834 0.7269 -0.0676
vn -0.1234 -0.9924 -0.0000
vn -0.0000 -0.0000 -1.0000
vn 0.0169 0.9929 -0.1182
vn -0.0047 -0.0000 1.0000
vn 0.0169 0.9929 0.1182
vn 0.6834 -0.7269 -0.0676
vn 0.4999 -0.0000 -0.8661
vn 0.6834 -0.7269 0.0676
vt 0.812500 0.625000
vt 0.875000 0.625000
vt 0.875000 0.750000
vt 0.812500 0.750000
vt 0.375000 0.937500
vt 0.625000 0.937500
vt 0.625000 1.000000
vt 0.375000 1.000000
vt 0.375000 0.125000
vt 0.625000 0.125000
vt 0.625000 0.250000
vt 0.375000 0.250000
vt 0.343750 0.625000
vt 0.375000 0.625000
vt 0.375000 0.750000
vt 0.343750 0.750000
vt 0.625000 0.625000
vt 0.625000 0.750000
vt 0.375000 0.468750
vt 0.625000 0.468750
vt 0.625000 0.500000
vt 0.375000 0.500000
vt 0.343750 0.500000
vt 0.375000 0.000000
vt 0.625000 0.000000
vt 0.812500 0.500000
vt 0.875000 0.500000
vt 0.687500 0.500000
vt 0.750000 0.500000
vt 0.750000 0.625000
vt 0.687500 0.625000
vt 0.234375 0.500000
vt 0.250000 0.500000
vt 0.250000 0.625000
vt 0.234375 0.625000
vt 0.375000 0.359375
vt 0.625000 0.359375
vt 0.625000 0.375000
vt 0.375000 0.375000
vt 0.250000 0.750000
vt 0.234375 0.750000
vt 0.375000 0.812500
vt 0.625000 0.812500
vt 0.625000 0.875000
vt 0.375000 0.875000
vt 0.750000 0.750000
vt 0.687500 0.750000
vt 0.125000 0.625000
vt 0.187500 0.625000
vt 0.187500 0.750000
vt 0.125000 0.750000
vt 0.625000 0.312500
vt 0.375000 0.312500
vt 0.125000 0.500000
vt 0.187500 0.500000
vt 0.781250 0.500000
vt 0.781250 0.625000
vt 0.375000 0.906250
vt 0.625000 0.906250
vt 0.781250 0.750000
vt 0.773438 0.625000
vt 0.773438 0.750000
vt 0.375000 0.898438
vt 0.625000 0.898438
vt 0.773438 0.500000
vt 0.218750 0.625000
vt 0.218750 0.750000
vt 0.625000 0.343750
vt 0.375000 0.343750
vt 0.218750 0.500000
vt 0.765625 0.500000
vt 0.765625 0.625000
vt 0.625000 0.890625
vt 0.375000 0.890625
vt 0.765625 0.750000
vt 0.226562 0.625000
vt 0.226562 0.750000
vt 0.375000 0.351562
vt 0.625000 0.351562
vt 0.226562 0.500000
vt 0.656250 0.625000
vt 0.656250 0.750000
vt 0.375000 0.781250
vt 0.625000 0.781250
vt 0.656250 0.500000
vt 0.312500 0.500000
vt 0.312500 0.625000
vt 0.625000 0.437500
vt 0.375000 0.437500
vt 0.312500 0.750000
s 0
usemtl Material
f 34/32/12 13/33/12 17/34/12 36/35/12
f 34/36/13 32/37/13 16/38/13 13/39/13
f 36/35/14 17/34/14 15/40/14 31/41/14
f 42/61/22 27/57/22 29/60/22 38/62/22
f 40/63/23 38/64/23 29/59/23 25/58/23
f 41/65/24 26/56/24 27/57/24 42/61/24
f 16/29/28 32/71/28 33/72/28 18/30/28
f 15/45/29 14/44/29 35/73/29 31/74/29
f 18/30/30 33/72/30 35/75/30 14/46/30
f 39/76/31 36/35/31 31/41/31 40/77/31
f 37/78/32 41/79/32 32/37/32 34/36/32
f 37/80/33 34/32/33 36/35/33 39/76/33
f 28/70/34 37/80/34 39/76/34 30/66/34
f 28/69/35 26/68/35 41/79/35 37/78/35
f 30/66/36 39/76/36 40/77/36 25/67/36
f 32/71/37 41/65/37 42/61/37 33/72/37
f 31/74/38 35/73/38 38/64/38 40/63/38
f 33/72/39 42/61/39 38/62/39 35/75/39
f 51/81/40 45/31/40 47/47/40 53/82/40
f 49/83/41 53/84/41 47/43/41 43/42/41
f 50/85/42 44/28/42 45/31/42 51/81/42
f 46/86/48 52/23/48 54/13/48 48/87/48
f 46/89/49 44/88/49 50/20/49 52/19/49
f 48/87/50 54/13/50 49/16/50 43/90/50
usemtl Material.001
f 24/1/1 11/2/1 7/3/1 20/4/1
f 22/5/2 20/6/2 7/7/2 8/8/2
f 9/9/3 11/10/3 5/11/3 6/12/3
f 54/13/4 12/14/4 4/15/4 49/16/4
f 12/14/5 10/17/5 3/18/5 4/15/5
f 52/19/6 50/20/6 1/21/6 2/22/6
f 2/22/7 1/21/7 10/17/7 12/14/7
f 52/23/8 2/22/8 12/14/8 54/13/8
f 8/24/9 7/25/9 11/10/9 9/9/9
f 23/26/10 5/27/10 11/2/10 24/1/10
f 44/28/11 16/29/11 18/30/11 45/31/11
f 43/42/15 47/43/15 14/44/15 15/45/15
f 45/31/11 18/30/11 14/46/11 47/47/11
f 9/48/16 21/49/16 22/50/16 8/51/16
f 6/12/17 5/11/17 23/52/17 19/53/17
f 6/54/18 19/55/18 21/49/18 9/48/18
f 26/56/19 23/26/19 24/1/19 27/57/19
f 25/58/20 29/59/20 20/6/20 22/5/20
f 27/57/21 24/1/21 20/4/21 29/60/21
f 21/49/25 30/66/25 25/67/25 22/50/25
f 19/53/26 23/52/26 26/68/26 28/69/26
f 19/55/27 28/70/27 30/66/27 21/49/27
f 13/33/43 46/86/43 48/87/43 17/34/43
f 13/39/44 16/38/44 44/88/44 46/89/44
f 17/34/43 48/87/43 43/90/43 15/40/43
f 1/21/45 50/85/45 51/81/45 10/17/45
f 4/15/46 3/18/46 53/84/46 49/83/46
f 10/17/47 51/81/47 53/82/47 3/18/47
