# Blender 4.0.2
# www.blender.org
mtllib steerz.mtl
o Cube
v -1.000000 -1.000000 9.623406
v 1.000000 1.000000 -9.623406
v 1.000000 -1.000000 9.623406
v 1.000000 1.000000 9.623406
v 1.000000 -1.000000 -9.623406
v -1.000000 -1.000000 -9.623406
v -1.000000 -3.397213 -9.623406
v -1.000000 -3.397213 9.623406
v -2.841200 -3.397213 9.623406
v -2.841200 -3.397213 -9.623406
v -2.841200 -5.531706 -9.623406
v -2.841200 -5.531706 9.623406
v -4.929000 -5.531706 9.623406
v -16.442694 1.000000 -9.623406
v -4.929000 -5.531706 -9.623406
v -7.305025 -7.883809 9.623406
v -4.929000 -7.883809 9.623406
v -4.929000 -7.883809 -9.623406
v -7.305024 -7.883809 -9.623406
v -7.305024 -10.230873 -9.623406
v -7.305024 -10.230873 9.623406
v -9.594965 -10.230873 9.623406
v -9.594965 -10.230873 -9.623406
v -11.719787 -12.088974 -9.623406
v -11.719787 -12.088974 9.623406
v -9.594965 -12.088974 -9.623406
v -9.594965 -12.088974 9.623406
v -16.442694 1.000000 9.623406
v -13.881420 -7.883809 -9.623406
v -13.881420 -7.883809 9.623406
v -13.881420 -10.230873 -9.623406
v -13.881420 -10.230873 9.623406
v -13.881420 -12.088974 -9.623406
v -13.881420 -12.088974 9.623406
v -13.881420 -14.081238 9.623406
v -11.719787 -14.081238 9.623406
v -11.719787 -14.081238 -9.623406
v -13.881420 -14.081238 -9.623406
v -13.881420 -7.883809 -9.623406
v -13.881420 -7.883809 9.623406
v -13.881420 -10.230873 -9.623406
v -13.881420 -10.230873 9.623406
v -13.881420 -12.088974 -9.623406
v -13.881420 -12.088974 9.623406
v -13.881420 -14.081238 -9.623406
v -13.881420 -14.081238 9.623406
v -16.442694 -7.883809 -9.623406
v -16.442694 -7.883809 9.623406
v -16.442694 -10.230873 -9.623406
v -16.442694 -10.230873 9.623406
v -16.442694 -12.088974 -9.623406
v -16.442694 -12.088974 9.623406
v -16.442694 -7.883809 -9.623406
v -16.442694 -7.883809 9.623406
v -16.442694 -10.230873 -9.623406
v -16.442694 -10.230873 9.623406
v -16.442694 -12.088974 -9.623406
v -16.442694 -12.088974 9.623406
v -13.881420 -16.643524 -9.623406
v -13.881420 -16.643524 9.623406
v -16.442694 -16.643524 -9.623406
v -16.442694 -16.643524 9.623406
vn -0.0000 -0.0000 -1.0000
vn -0.0000 -0.0000 1.0000
vn -0.0000 1.0000 -0.0000
vn -0.0000 -1.0000 -0.0000
vn 1.0000 -0.0000 -0.0000
vn -1.0000 -0.0000 -0.0000
vt 0.625000 0.500000
vt 0.375000 0.500000
vt 0.375000 0.250000
vt 0.625000 0.750000
vt 0.375000 1.000000
vt 0.375000 0.750000
vt 0.625000 0.250000
vt 0.625000 1.000000
vt 0.375000 0.000000
vt 0.125000 0.500000
vt 0.125000 0.750000
vt 0.875000 0.750000
vt 0.875000 0.500000
vt 0.625000 0.000000
s 0
f 2/1/1 5/2/1 6/3/1
f 4/4/2 1/5/2 3/6/2
f 19/3/1 14/7/1 15/3/1
f 1/5/2 16/5/2 9/5/2
f 6/3/1 14/7/1 2/1/1
f 9/5/2 16/5/2 13/5/2
f 15/3/1 14/7/1 10/3/1
f 16/5/2 17/5/2 13/5/2
f 1/5/2 28/8/2 16/5/2
f 22/5/2 21/5/2 16/5/2
f 25/5/2 27/5/2 22/5/2
f 28/8/2 48/5/2 30/5/2
f 29/3/1 47/3/1 14/7/1
f 29/3/3 41/3/3 39/3/3
f 28/8/2 30/5/2 22/5/2
f 34/9/3 43/3/3 44/9/3
f 33/3/3 45/3/3 43/3/3
f 35/5/3 44/5/3 46/5/3
f 30/9/3 39/3/3 40/9/3
f 38/10/3 46/11/3 45/10/3
f 32/5/3 40/5/3 42/5/3
f 31/3/3 42/9/3 41/3/3
f 44/5/2 58/5/2 46/5/2
f 45/3/1 57/3/1 43/3/1
f 1/11/4 6/10/4 5/2/4 3/6/4
f 28/12/3 4/4/3 2/1/3 14/13/3
f 7/10/5 6/10/5 1/11/5 8/11/5
f 10/10/4 7/10/4 8/11/4 9/11/4
f 15/10/4 11/10/4 12/11/4 13/11/4
f 1/5/2 9/5/2 8/5/2
f 6/3/1 7/3/1 10/3/1
f 19/3/1 23/3/1 14/7/1
f 9/5/2 13/5/2 12/5/2
f 6/3/1 10/3/1 14/7/1
f 4/4/2 28/8/2 1/5/2
f 11/10/5 10/10/5 9/11/5 12/11/5
f 10/3/1 11/3/1 15/3/1
f 19/10/4 18/10/4 17/11/4 16/11/4
f 18/10/5 15/10/5 13/11/5 17/11/5
f 20/10/5 19/10/5 16/11/5 21/11/5
f 15/3/1 18/3/1 19/3/1
f 16/5/2 28/8/2 22/5/2
f 23/10/4 20/10/4 21/11/4 22/11/4
f 32/5/2 25/5/2 22/5/2 30/5/2
f 19/3/1 20/3/1 23/3/1
f 29/3/1 23/3/1 24/3/1 31/3/1
f 24/10/4 26/10/4 27/11/4 25/11/4
f 25/5/2 32/5/2 34/5/2
f 26/10/5 23/10/5 22/11/5 27/11/5
f 61/3/1 57/3/1 45/3/1 59/3/1
f 23/3/1 26/3/1 24/3/1
f 49/3/1 31/3/1 33/3/1 51/3/1
f 36/5/2 25/5/2 34/5/2 35/5/2
f 29/3/3 31/3/3 41/3/3
f 24/3/1 33/3/1 31/3/1
f 3/6/5 5/2/5 2/1/5 4/4/5
f 38/10/4 37/10/4 36/11/4 35/11/4
f 23/3/1 29/3/1 14/7/1
f 38/3/1 33/3/1 24/3/1 37/3/1
f 34/9/3 33/3/3 43/3/3
f 37/10/5 24/10/5 25/11/5 36/11/5
f 58/9/3 44/9/3 43/3/3 57/3/3
f 47/3/4 29/3/4 30/9/4 48/9/4
f 48/9/6 28/14/6 14/7/6 47/3/6
f 33/3/3 38/3/3 45/3/3
f 35/5/3 34/5/3 44/5/3
f 30/9/3 29/3/3 39/3/3
f 38/10/3 35/11/3 46/11/3
f 32/5/3 30/5/3 40/5/3
f 31/3/3 32/9/3 42/9/3
f 52/9/6 50/9/6 49/3/6 51/3/6
f 56/9/6 54/9/6 53/3/6 55/3/6
f 50/9/3 32/9/3 31/3/3 49/3/3
f 54/9/3 40/9/3 39/3/3 53/3/3
f 55/3/4 41/3/4 42/9/4 56/9/4
f 53/3/1 39/3/1 41/3/1 55/3/1
f 51/3/4 33/3/4 34/9/4 52/9/4
f 56/5/2 42/5/2 40/5/2 54/5/2
f 52/5/2 34/5/2 32/5/2 50/5/2
f 61/10/4 59/10/4 60/11/4 62/11/4
f 59/10/5 45/10/5 46/11/5 60/11/5
f 62/9/6 58/9/6 57/3/6 61/3/6
f 60/5/2 46/5/2 58/5/2 62/5/2
