# Blender 4.0.2
# www.blender.org
mtllib arme.mtl
o Humerus
v -1.047982 0.011985 -0.263863
v -2.275621 0.170992 0.196601
v -1.477595 0.091250 0.083705
v -0.908030 0.266068 0.035640
v -3.060602 -0.050547 0.159949
v -2.349713 0.020287 0.315482
v -0.790157 -0.326015 0.044952
v -0.833756 0.015045 -0.252027
v -0.781612 0.148848 -0.080342
v -3.468076 0.253213 0.367605
v -3.596863 0.019909 0.078434
v -3.638464 -0.100425 0.404194
v -3.420488 -0.284119 0.226290
v -2.220358 -0.082464 0.182755
v -1.288507 -0.229131 0.020580
v -0.937829 -0.432594 -0.005203
v -3.019906 0.062166 0.301170
v -3.509065 0.061081 0.022639
v -3.350938 -0.098333 0.595587
v -1.831258 0.018656 0.034244
v -1.017905 0.144246 -0.215013
v -3.557422 0.284310 0.316096
v -3.386492 -0.322859 0.344122
v -3.595689 -0.177260 0.364435
v -2.616066 0.100427 0.071147
v -3.170007 0.147572 0.023785
v -2.958777 0.223361 0.170305
v -1.315599 -0.099467 0.208492
v -0.884195 -0.167212 0.350914
v -0.766798 -0.169982 0.204293
vn -0.3439 -0.9015 -0.2629
vn -0.1685 -0.1571 -0.9731
vn 0.0365 -0.9364 -0.3491
vn -0.2156 0.2427 -0.9458
vn -0.1087 -0.9718 -0.2094
vn 0.0433 0.1035 -0.9937
vn 0.0367 0.1642 -0.9857
vn 0.1444 0.9659 0.2148
vn -0.5035 0.8251 0.2563
vn 0.0198 0.7185 0.6952
vn 0.2362 0.0011 0.9717
vn 0.8981 -0.0752 0.4334
vn 0.2499 0.8873 0.3877
vn 0.3704 0.0719 0.9261
vn 0.1300 -0.0284 0.9911
vn -0.8701 -0.1883 0.4555
vn 0.0655 -0.9885 0.1365
vn -0.7229 -0.6703 0.1679
vn -0.1362 -0.8037 -0.5793
vn -0.7302 -0.1513 -0.6663
vn 0.8193 0.5392 -0.1951
vn -0.1588 -0.0583 0.9856
vn -0.0776 0.9108 0.4054
vn 0.1049 0.9404 0.3234
vn 0.0365 0.0269 0.9990
vn -0.0489 0.7148 -0.6976
vn 0.5097 -0.0364 -0.8596
vn 0.7903 -0.6104 -0.0523
vn 0.2720 -0.8455 -0.4594
vn -0.2493 -0.0011 -0.9684
s 1
usemtl Material.001
f 15//1 1//2 16//3
f 20//4 1//2 14//5
f 25//6 20//4 14//5
f 26//7 25//6 14//5
f 27//8 22//9 10//10
f 29//11 30//12 4//13
f 27//8 10//10 17//14
f 19//15 22//9 12//16
f 23//17 24//18 13//19
f 24//18 12//16 11//20
f 17//14 10//10 19//15
f 4//13 30//12 9//21
f 28//22 3//23 2//24 6//25
f 20//4 21//26 1//2
f 21//26 8//27 1//2
f 7//28 8//27 9//21
f 14//5 15//1 28//22
f 17//14 5//29 6//25
f 23//17 12//16 24//18
f 27//8 25//6 26//7
f 16//3 1//2 8//27
f 17//14 6//25 27//8
f 5//29 13//19 18//30
f 5//29 23//17 13//19
f 19//15 10//10 22//9
f 13//19 24//18 11//20
f 18//30 13//19 11//20
f 27//8 6//25 2//24
f 4//13 3//23 28//22 29//11
f 16//3 29//11 28//22 15//1
f 26//7 5//29 18//30
f 5//29 26//7 14//5
f 14//5 1//2 15//1
f 16//3 8//27 7//28
f 27//8 26//7 22//9
f 16//3 7//28 29//11
f 21//26 9//21 8//27
f 14//5 28//22 6//25 5//29
f 25//6 3//23 20//4
f 22//9 11//20 12//16
f 22//9 18//30 11//20
f 26//7 18//30 22//9
f 23//17 5//29 17//14 19//15
f 29//11 7//28 30//12
f 23//17 19//15 12//16
f 4//13 21//26 20//4 3//23
f 7//28 9//21 30//12
f 21//26 4//13 9//21
f 3//23 25//6 27//8 2//24
o Radius
v -0.789659 0.151498 0.018724
v 0.113224 0.077901 0.140952
v 1.233805 0.348611 0.147356
v -0.003594 0.130502 -0.049693
v 1.248843 0.292111 0.047824
v 0.983039 0.385257 -0.034730
v 1.689128 0.473450 0.166218
v 1.725106 0.371879 0.043404
v 0.112673 0.033661 -0.003064
v -0.821934 0.020050 0.066423
v -0.761301 0.084561 -0.151787
v -0.792087 -0.051984 -0.053599
v -0.012476 0.204603 0.056145
v 1.725275 0.268434 0.219025
vn -0.4278 0.2187 -0.8770
vn -0.5351 -0.8082 -0.2461
vn -0.7186 -0.2497 0.6490
vn 0.0378 0.2943 -0.9550
vn 0.1670 -0.8892 -0.4260
vn -0.0593 0.6370 -0.7686
vn 0.6804 -0.0088 -0.7328
vn 0.4220 0.8446 0.3296
vn 0.5744 -0.6075 0.5487
vn 0.0725 -0.8165 0.5727
vn -0.5781 0.7682 0.2753
vn -0.1573 0.9832 0.0920
vn 0.0457 -0.4995 0.8651
vn -0.0537 -0.3347 0.9408
s 1
usemtl Material.008
f 41//31 42//32 40//33
f 34//34 39//35 41//31
f 39//35 36//36 38//37
f 37//38 38//37 36//36
f 38//37 44//39 35//40
f 41//31 39//35 42//32
f 31//41 41//31 40//33
f 41//31 31//41 43//42
f 42//32 39//35 32//43
f 39//35 34//34 36//36
f 32//43 39//35 35//40
f 43//42 37//38 36//36
f 37//38 40//33 32//43 33//44
f 37//38 33//44 44//39
f 33//44 35//40 44//39
f 35//40 39//35 38//37
f 40//33 37//38 43//42
f 43//42 31//41 40//33
f 38//37 37//38 44//39
f 32//43 35//40 33//44
f 34//34 43//42 36//36
f 40//33 42//32 32//43
f 41//31 43//42 34//34
o Ulna
v -0.735618 -0.271666 0.154773
v -0.649032 -0.116006 -0.064487
v -0.505783 -0.209922 0.065570
v -0.161364 -0.079842 0.026898
v 0.332106 -0.103832 0.297117
v 0.954077 0.145823 0.225792
v 1.689537 0.043734 0.219100
v 1.043161 0.078413 0.117842
v 1.697735 0.100416 0.388959
v 1.671809 0.176079 0.085030
v 1.646746 0.324429 0.296060
v 1.765787 0.199455 0.238366
v -0.558244 -0.096376 0.206882
v 0.157295 -0.181904 0.102286
v 1.157705 0.069553 0.320161
v -0.705092 0.013999 0.100761
v -0.167871 0.016126 0.140078
vn 0.1072 -0.9056 -0.4104
vn 0.0021 -0.4676 0.8839
vn 0.1601 -0.9786 -0.1296
vn 0.3723 0.1211 -0.9202
vn 0.9709 0.2302 -0.0666
vn 0.4965 -0.8441 -0.2024
vn -0.0828 0.9962 -0.0284
vn 0.0606 0.1918 -0.9796
vn -0.3420 -0.0149 -0.9396
vn -0.6374 0.7659 0.0845
vn -0.0549 -0.0952 0.9939
vn 0.2076 0.9385 0.2760
vn -0.1524 0.9788 0.1367
vn -0.0821 0.0091 0.9966
vn -0.5973 -0.7294 0.3334
vn 0.0005 0.2536 -0.9673
vn 0.4572 -0.3385 0.8224
s 1
usemtl Material.009
f 58//45 49//46 47//47
f 54//48 56//49 51//50
f 61//51 48//52 46//53 60//54
f 59//55 55//56 50//57
f 61//51 57//58 50//57
f 47//47 48//52 58//45
f 57//58 61//51 60//54
f 45//59 46//53 47//47
f 55//56 56//49 54//48
f 52//60 50//57 54//48
f 51//50 53//61 59//55
f 61//51 52//60 48//52
f 47//47 49//46 57//58
f 45//59 60//54 46//53
f 57//58 60//54 45//59
f 48//52 52//60 58//45
f 57//58 49//46 59//55
f 58//45 51//50 49//46
f 59//55 53//61 55//56
f 55//56 53//61 56//49
f 53//61 51//50 56//49
f 51//50 52//60 54//48
f 58//45 52//60 51//50
f 50//57 57//58 59//55
f 47//47 46//53 48//52
f 54//48 50//57 55//56
f 59//55 49//46 51//50
f 61//51 50//57 52//60
f 57//58 45//59 47//47
o Cube
v 1.923835 0.384011 0.103235
v 1.889176 -0.053887 0.278316
v 2.058784 0.301490 0.248338
v 1.818055 0.403725 0.214306
v 2.052200 0.262704 0.096441
v 1.695430 0.172423 0.270660
v 1.716540 0.199029 0.323637
v 1.901957 -0.031641 0.425724
v 1.769418 0.335281 0.164008
v 1.806819 -0.039651 0.317591
v 2.007271 0.376601 0.202342
v 2.352966 0.232186 0.089692
v 2.265985 0.312618 0.153220
v 2.475652 0.200276 0.164195
v 2.088076 0.238874 0.118465
v 2.108361 0.294376 0.228756
v 2.462448 0.248184 0.042308
v 2.542620 0.191436 0.105905
v 2.113320 0.411368 0.183000
v 2.519376 0.273235 0.126158
v 2.067367 0.340379 0.069123
v 2.546146 0.255090 0.112911
v 2.528554 0.190433 0.049760
v 2.688579 0.204170 0.055248
v 2.654839 0.131524 0.116849
v 2.654106 0.103145 -0.217357
v 2.604615 0.052642 -0.190588
v 2.612476 0.151531 0.064245
v 2.652210 0.128741 -0.235499
v 2.610806 0.088833 -0.193863
v 2.478779 0.158438 -0.283535
v 2.643063 0.053248 -0.230828
v 2.462005 0.124031 -0.272628
v 2.484565 0.147753 -0.305676
v 2.441678 0.184383 -0.269182
v 2.249568 0.184164 -0.311715
v 2.446294 0.107920 -0.265049
v 2.294837 0.195102 0.154929
v 2.300837 0.121152 0.184306
v 2.296175 0.190190 0.248403
v 2.534377 0.035645 0.272917
v 2.518528 0.000719 0.169625
v 2.616050 -0.044306 0.113937
v 2.084113 0.117832 0.199091
v 2.109023 0.184679 0.331001
v 2.583437 0.060589 0.129708
v 2.128248 0.324814 0.271308
v 2.593918 0.116595 0.230170
v 2.072369 0.239562 0.136325
v 2.539882 -0.039314 0.094985
v 2.677779 0.008245 0.105313
v 2.540695 -0.147391 -0.300666
v 2.576485 -0.125810 -0.087592
v 2.520604 -0.204400 -0.267430
v 2.605554 -0.089075 0.134059
v 2.594599 -0.150416 -0.260484
v 2.220227 -0.043081 -0.348438
v 2.441831 -0.047670 -0.299771
v 2.453837 -0.140057 -0.305542
v 2.239356 -0.084466 -0.351677
v 2.418951 -0.121410 -0.254572
v 2.207175 -0.008554 -0.345618
v 2.243479 -0.076371 -0.372490
v 1.964254 -0.022531 -0.382154
v 2.171735 -0.068857 -0.307802
v 2.251748 -0.005905 0.272946
v 2.251983 0.071886 0.342026
v 2.498993 -0.121571 0.382739
v 2.456264 -0.149431 0.276400
v 2.491760 -0.184408 0.160553
v 2.533583 -0.224793 0.199029
v 2.012317 0.011727 0.278881
v 2.040685 0.086175 0.424939
v 2.499936 -0.061608 0.225247
v 2.078665 0.237391 0.357001
v 2.575598 -0.039184 0.335970
v 2.014130 0.145376 0.205797
v 2.435936 -0.201940 0.154240
v 2.590833 -0.156969 0.157133
v 2.436777 -0.342814 -0.258346
v 2.461931 -0.316603 -0.045021
v 2.344255 -0.295521 -0.266749
v 2.424768 -0.429536 -0.229128
v 2.507457 -0.257334 0.198769
v 2.477043 -0.351047 -0.217017
v 2.368511 -0.382632 -0.230077
v 2.296069 -0.294619 -0.227814
v 2.073506 -0.274428 -0.302472
v 2.095284 -0.314824 -0.316913
v 2.357802 -0.382877 -0.259119
v 2.344423 -0.285956 -0.298963
v 2.058451 -0.237913 -0.310364
v 2.103552 -0.280422 -0.350585
v 2.077453 -0.334490 -0.318545
v 1.787820 -0.272433 -0.337124
v 2.025666 -0.304125 -0.262465
v 2.187789 -0.138017 0.327996
v 2.190380 -0.066486 0.390235
v 2.437478 -0.268494 0.438131
v 2.437563 -0.201451 0.294444
v 2.468568 -0.181635 0.395852
v 2.386910 -0.285832 0.254017
v 1.970359 -0.112199 0.328445
v 1.996651 -0.044070 0.461789
v 2.038085 0.092314 0.397717
v 2.390534 -0.293494 0.331687
v 1.978890 0.008747 0.260302
v 2.402580 -0.220956 0.210548
v 2.272990 -0.445624 -0.158832
v 2.293278 -0.474390 -0.059431
v 2.331931 -0.483609 -0.135929
v 2.470732 -0.262910 0.248662
v 2.378361 -0.335037 0.284959
v 2.316569 -0.287761 0.241919
v 2.292724 -0.446403 -0.175180
v 2.111212 -0.454752 -0.157897
v 2.351067 -0.518443 -0.142753
v 2.233799 -0.480216 -0.126174
v 2.125628 -0.476324 -0.185353
v 2.092589 -0.415749 -0.176104
v 2.132326 -0.482463 -0.199402
v 1.845632 -0.455834 -0.193689
v 2.065898 -0.475710 -0.129730
v 1.958843 -0.123646 0.468938
v 1.936114 -0.017418 0.419556
v 1.983346 -0.202689 0.329023
v 1.907200 -0.141113 0.258532
v 1.935790 -0.364280 0.327127
v 1.806354 -0.287522 0.188807
v 2.034360 -0.329246 0.270014
v 1.894315 -0.233188 0.129165
v 1.906145 -0.340447 0.184780
v 1.846753 -0.112438 0.329618
v 2.010879 -0.063254 0.430253
v 1.930077 -0.316619 0.145856
v 1.993595 -0.436246 0.309185
v 1.913746 -0.505131 -0.013104
v 2.057628 -0.371403 0.229715
v 1.883948 -0.361058 0.225276
v 1.977916 -0.554232 0.047531
v 1.939787 -0.566919 0.031889
v 1.907317 -0.625648 -0.112648
v 1.955835 -0.516202 -0.018952
vn 0.5805 0.4978 0.6444
vn 0.4514 0.7441 0.4925
vn -0.0568 0.8314 0.5528
vn 0.4506 -0.2625 -0.8533
vn -0.0805 0.4937 -0.8659
vn -0.2611 -0.7000 -0.6647
vn -0.5683 -0.6360 -0.5220
vn -0.6393 -0.0564 -0.7669
vn 0.4143 -0.1291 0.9009
vn -0.1917 -0.8847 -0.4248
vn -0.6258 -0.2718 -0.7311
vn 0.0479 -0.3432 -0.9380
vn 0.7823 -0.5903 -0.1986
vn 0.5473 0.5941 0.5895
vn 0.2723 0.7301 0.6268
vn 0.4580 0.4611 0.7600
vn -0.2847 -0.1552 0.9460
vn -0.5189 -0.6533 -0.5513
vn 0.2617 -0.1679 0.9504
vn -0.5835 -0.5117 -0.6306
vn -0.6788 -0.5933 -0.4328
vn 0.4880 -0.1845 0.8531
vn 0.1234 0.7384 0.6630
vn 0.6708 0.5674 0.4776
vn 0.5650 0.6021 -0.5641
vn 0.4377 0.4911 -0.7532
vn 0.2436 0.2495 0.9372
vn 0.0746 -0.8804 -0.4683
vn 0.5755 0.5077 0.6411
vn -0.2746 0.8189 -0.5040
vn -0.6257 -0.4889 -0.6079
vn -0.0254 -0.9979 0.0589
vn 0.4609 0.6188 0.6362
vn 0.9567 0.2910 0.0031
vn -0.1718 -0.7901 -0.5884
vn -0.6018 -0.2451 -0.7601
vn 0.0983 0.2717 -0.9573
vn -0.3238 -0.6480 -0.6894
vn -0.4736 -0.6743 -0.5667
vn 0.4474 0.3628 -0.8174
vn 0.5643 0.5688 0.5983
vn 0.3351 0.7177 0.6104
vn -0.3272 -0.1519 0.9327
vn 0.3871 0.5874 0.7107
vn -0.5183 -0.6440 -0.5627
vn 0.3546 -0.0902 0.9306
vn 0.2802 -0.2724 0.9205
vn -0.1364 -0.9602 0.2437
vn 0.5346 0.5839 0.6110
vn -0.4304 -0.1915 -0.8821
vn -0.9530 0.2153 0.2133
vn -0.5240 -0.6206 -0.5834
vn 0.9359 0.0266 -0.3512
vn -0.7649 -0.2231 -0.6043
vn 0.3708 0.1907 0.9089
vn 0.5200 0.6457 0.5591
vn -0.4787 -0.6213 -0.6204
vn 0.2550 -0.7849 -0.5647
vn -0.6131 -0.5031 -0.6091
vn 0.6164 -0.5479 -0.5656
vn 0.1695 0.0448 0.9845
vn 0.5145 0.6301 0.5816
vn -0.2946 -0.8729 -0.3889
vn -0.5858 -0.2109 -0.7825
vn 0.3706 0.3780 -0.8484
vn -0.6144 -0.7165 -0.3303
vn -0.4993 -0.5366 -0.6803
vn 0.5803 0.5560 0.5951
vn 0.3459 0.7167 0.6056
vn -0.3885 -0.0959 0.9164
vn 0.4599 0.4196 0.7826
vn -0.5300 -0.6309 -0.5667
vn 0.3320 -0.1579 0.9300
vn -0.1608 -0.8614 -0.4818
vn -0.5984 0.3443 0.7235
vn -0.7181 -0.3931 -0.5743
vn 0.2845 -0.1726 0.9430
vn -0.3013 -0.9097 0.2856
vn 0.5432 0.5851 0.6022
vn -0.7858 0.1470 0.6008
vn -0.9156 0.3234 0.2388
vn -0.6676 -0.5173 -0.5355
vn -0.2907 -0.7629 -0.5775
vn 0.9411 -0.0499 -0.3345
vn 0.6433 0.4698 0.6045
vn 0.4451 -0.8935 -0.0603
vn -0.5120 -0.5880 -0.6262
vn 0.6943 0.6884 0.2101
vn -0.9055 -0.0997 -0.4124
vn 0.4101 0.5703 0.7117
vn -0.6161 -0.5109 -0.5995
vn 0.1765 -0.9017 -0.3947
vn 0.3005 0.2446 0.9219
vn 0.9265 0.3763 0.0009
vn 0.5003 0.6362 0.5873
vn -0.3007 -0.8518 -0.4289
vn -0.5745 -0.1946 -0.7950
vn 0.7182 0.1254 -0.6844
vn 0.5358 -0.1502 0.8309
vn -0.4895 -0.5483 -0.6781
vn 0.5791 0.5593 0.5931
vn 0.3535 0.7167 0.6012
vn 0.4047 0.3436 0.8474
vn -0.4087 -0.0599 0.9107
vn -0.5352 -0.6245 -0.5688
vn -0.4172 -0.7781 -0.4696
vn -0.8993 0.2419 0.3644
vn -0.5352 -0.7885 0.3031
vn 0.1959 -0.0928 0.9762
vn -0.5375 -0.4925 -0.6845
vn 0.2112 0.9137 0.3472
vn -0.0221 -0.7511 -0.6599
vn 0.5617 0.5430 0.6242
vn 0.7185 0.3414 0.6061
vn -0.6942 0.1810 0.6967
vn 0.5216 0.8056 0.2808
vn -0.0598 0.4542 0.8889
vn -0.6080 -0.5207 -0.5993
vn 0.6062 -0.5251 -0.5973
vn 0.2977 0.2178 0.9295
vn 0.5082 0.6587 0.5549
vn 0.2030 -0.1042 0.9736
vn 0.5921 0.5424 0.5959
vn 0.1680 0.8537 0.4929
vn -0.9083 0.4178 0.0227
vn 0.9968 0.0275 -0.0756
vn -0.2216 -0.8758 0.4288
vn -0.1618 0.0634 -0.9848
vn 0.2176 0.7045 -0.6755
vn -0.6260 -0.5145 -0.5860
vn 0.9726 -0.0415 0.2285
vn -0.2412 -0.7592 -0.6045
vn 0.3816 0.3176 0.8681
vn 0.5870 0.5855 0.5591
vn -0.7854 0.3222 0.5286
vn -0.0902 -0.8787 -0.4687
vn 0.0205 0.9575 -0.2878
vn -0.5010 -0.5403 -0.6761
vn 0.7896 0.5909 0.1658
vn 0.7879 0.5938 0.1631
vn 0.8145 0.5755 0.0731
vn 0.0038 0.9894 -0.1449
vn -0.4145 0.4560 0.7876
s 1
usemtl Material.010
f 64//62 72//63 65//64
f 72//63 66//65 62//66
f 63//67 71//68 70//69
f 62//66 66//65 70//69
f 66//65 69//70 63//67
f 65//64 62//66 70//69
f 73//71 82//72 78//73
f 78//73 79//74 73//71
f 81//75 79//74 78//73
f 78//73 80//76 74//77
f 77//78 82//72 76//79
f 75//80 79//74 81//75
f 79//74 75//80 73//71
f 74//77 81//75 78//73
f 84//81 89//82 86//83
f 83//84 85//85 84//81
f 87//86 88//87 85//85
f 91//88 93//89 90//90
f 94//91 93//89 91//88
f 97//92 98//93 96//94
f 98//93 97//92 95//95
f 98//93 95//95 96//94
f 95//95 97//92 96//94
f 100//96 110//97 99//98
f 104//99 103//100 107//101
f 104//99 107//101 109//102
f 108//103 106//104 101//105
f 99//98 108//103 101//105
f 106//104 110//97 105//106
f 102//107 104//99 109//102
f 99//98 103//100 100//96
f 103//100 104//99 102//107
f 103//100 102//107 100//96
f 101//105 109//102 99//98
f 116//108 114//109 112//110
f 113//111 111//112 112//110
f 113//111 114//109 111//112
f 115//113 113//111 117//114
f 111//112 114//109 116//108
f 116//108 112//110 111//112
f 118//115 122//116 119//117
f 121//118 120//119 122//116
f 122//116 120//119 119//117
f 125//120 124//121 126//122
f 125//120 126//122 123//123
f 126//122 124//121 123//123
f 124//121 125//120 123//123
f 127//124 138//125 135//126
f 135//126 130//127 127//124
f 131//128 130//127 135//126
f 131//128 135//126 137//129
f 136//130 134//131 128//132
f 135//126 136//130 128//132
f 134//131 138//125 133//133
f 129//134 132//135 137//129
f 69//70 68//136 67//137 71//68
f 131//128 132//135 129//134
f 130//127 129//134 127//124
f 128//132 137//129 135//126
f 145//138 142//139 140//140
f 141//141 139//142 140//140
f 141//141 142//139 139//142
f 147//143 144//144 142//139
f 146//145 143//146 141//141
f 144//144 143//146 146//145
f 143//146 147//143 141//141
f 139//142 142//139 145//138
f 145//138 140//140 139//142
f 151//147 150//148 152//149
f 152//149 149//150 148//151
f 156//152 155//153 157//154
f 155//153 156//152 154//155
f 156//152 157//154 153//156
f 154//155 156//152 153//156
f 158//157 168//158 161//159
f 160//160 163//161 162//162
f 161//159 166//163 159//164
f 165//165 168//158 164//166
f 163//161 167//167 161//159
f 161//159 167//167 158//157
f 163//161 161//159 162//162
f 167//167 160//160 158//157
f 175//168 171//169 174//170
f 170//171 169//172 172//173
f 174//170 171//169 173//174
f 172//173 169//172 173//174
f 170//171 172//173 171//169
f 178//175 180//176 176//177
f 180//176 178//175 179//178
f 183//179 182//180 184//181
f 183//179 184//181 181//182
f 184//181 182//180 181//182
f 182//180 183//179 181//182
f 185//183 195//184 186//185
f 185//183 186//185 194//186
f 185//183 187//187 195//184
f 194//186 189//188 185//183
f 192//189 188//190 187//187
f 190//191 194//186 188//190
f 189//188 191//192 187//187
f 192//189 190//191 188//190
f 189//188 193//193 191//192
f 192//189 193//193 190//191
f 193//193 192//189 191//192
f 190//191 193//193 189//188
f 186//185 188//190 194//186
f 197//194 199//195 200//196
f 201//197 196//198 199//195
f 197//194 201//197 199//195
f 196//198 198//199 200//196
f 200//196 201//197 197//194
f 198//199 201//197 200//196
f 202//200 204//201 203//202
f 70//69 67//137 68//136 65//64
f 70//69 71//68 67//137
f 65//64 68//136 69//70 64//62
f 73//71 74//77 77//78 76//79
f 66//65 63//67 70//69
f 66//65 64//62 69//70
f 63//67 69//70 71//68
f 72//63 64//62 66//65
f 65//64 72//63 62//66
f 80//76 77//78 74//77
f 77//78 80//76 82//72
f 75//80 81//75 74//77
f 73//71 76//79 82//72
f 78//73 82//72 80//76
f 87//86 85//85 86//83 88//87
f 73//71 75//80 74//77
f 86//83 85//85 83//84
f 84//81 85//85 89//82
f 85//85 88//87 89//82
f 89//82 88//87 86//83
f 92//203 90//90 93//89 94//91
f 83//84 84//81 86//83
f 91//88 90//90 92//203 94//91
f 100//96 101//105 106//104 105//106
f 99//98 109//102 107//101
f 106//104 108//103 110//97
f 99//98 107//101 103//100
f 102//107 109//102 101//105
f 100//96 105//106 110//97
f 99//98 110//97 108//103
f 118//115 119//117 120//119 121//118
f 100//96 102//107 101//105
f 112//110 114//109 117//114
f 117//114 113//111 112//110
f 113//111 115//113 114//109
f 114//109 115//113 117//114
f 127//124 128//132 134//131 133//133
f 118//115 121//118 122//116
f 134//131 136//130 138//125
f 129//134 137//129 128//132
f 127//124 133//133 138//125
f 135//126 138//125 136//130
f 151//147 148//151 149//150 150//148
f 132//135 131//128 137//129
f 130//127 131//128 129//134
f 127//124 129//134 128//132
f 140//140 142//139 146//145
f 146//145 141//141 140//140
f 141//141 147//143 142//139
f 142//139 144//144 146//145
f 143//146 144//144 147//143
f 148//151 151//147 152//149
f 154//155 153//156 157//154 155//153
f 152//149 150//148 149//150
f 158//157 159//164 165//165 164//166
f 159//164 166//163 165//165
f 165//165 166//163 168//158
f 160//160 162//162 159//164
f 158//157 164//166 168//158
f 161//159 168//158 166//163
f 169//172 175//168 174//170 173//174
f 167//167 163//161 160//160
f 159//164 162//162 161//159
f 158//157 160//160 159//164
f 173//174 171//169 172//173
f 169//172 170//171 175//168
f 175//168 170//171 171//169
f 177//204 179//178 176//177 180//176
f 179//178 178//175 176//177
f 177//204 180//176 179//178
f 195//184 187//187 188//190
f 185//183 189//188 187//187
f 194//186 190//191 189//188
f 191//192 192//189 187//187
f 188//190 186//185 195//184
f 201//197 198//199 196//198
f 200//196 199//195 196//198
f 202//200 203//202 204//201
