# Blender 4.0.2
# www.blender.org
mtllib outoftorch.mtl
o Cube
v 0.921054 1.237085 -1.425602
v 0.921054 -1.237085 -1.425602
v 0.921054 1.237085 1.425602
v 0.921054 -1.237085 1.425602
v -9.525347 0.611339 -0.651480
v -9.525347 -0.611339 -0.651480
v -9.525347 0.611339 0.651480
v -9.525347 -0.611339 0.651480
v -9.525347 -0.902925 0.000000
v 0.921054 1.840825 0.000000
v -9.525347 0.902925 0.000000
v 0.921054 -1.840825 0.000000
v 0.921054 0.000000 -1.820588
v -9.525347 0.000000 0.889765
v 0.921054 0.000000 1.820588
v -9.525347 0.000000 -0.889765
v 0.921054 0.000000 0.000000
v -9.525347 0.000000 0.000000
v -2.920861 -1.000000 -1.000000
v -2.920861 1.000000 1.000000
v -2.920861 -1.000000 1.000000
v -2.920861 1.000000 -1.000000
v -2.920861 -1.150039 0.000000
v -2.920861 1.150039 0.000000
v -2.920861 0.000000 -1.108850
v -2.920861 0.000000 1.108850
vn -0.0532 0.9647 0.2580
vn -0.0481 0.2104 0.9764
vn -1.0000 -0.0000 -0.0000
vn -0.1306 -0.9468 0.2942
vn 1.0000 -0.0000 -0.0000
vn -0.1495 0.2172 -0.9646
vn -0.1306 -0.9468 -0.2942
vn -0.0532 0.9647 -0.2580
vn -0.1495 -0.2172 -0.9646
vn -0.0481 -0.2104 0.9764
vn -0.1495 -0.2172 0.9646
vn -0.0481 -0.2104 -0.9764
vn -0.1306 0.9468 -0.2942
vn -0.0532 -0.9647 -0.2580
vn -0.0481 0.2104 -0.9764
vn -0.0532 -0.9647 0.2580
vn -0.1495 0.2172 0.9646
vn -0.1306 0.9468 0.2942
vt 0.750000 0.625000
vt 0.875000 0.625000
vt 0.875000 0.750000
vt 0.750000 0.750000
vt 0.500000 0.875000
vt 0.625000 0.875000
vt 0.625000 1.000000
vt 0.500000 1.000000
vt 0.500000 0.125000
vt 0.625000 0.125000
vt 0.625000 0.250000
vt 0.500000 0.250000
vt 0.250000 0.625000
vt 0.375000 0.625000
vt 0.375000 0.750000
vt 0.250000 0.750000
vt 0.500000 0.625000
vt 0.625000 0.625000
vt 0.625000 0.750000
vt 0.500000 0.750000
vt 0.500000 0.375000
vt 0.625000 0.375000
vt 0.625000 0.500000
vt 0.500000 0.500000
vt 0.250000 0.500000
vt 0.375000 0.500000
vt 0.500000 0.000000
vt 0.625000 0.000000
vt 0.750000 0.500000
vt 0.875000 0.500000
vt 0.375000 0.000000
vt 0.375000 0.125000
vt 0.375000 0.375000
vt 0.375000 0.250000
vt 0.375000 0.875000
vt 0.375000 1.000000
vt 0.125000 0.500000
vt 0.125000 0.625000
vt 0.125000 0.750000
s 0
usemtl Material
f 24/1/1 11/2/1 7/3/1 20/4/1
f 26/5/2 20/6/2 7/7/2 14/8/2
f 18/9/3 11/10/3 5/11/3 16/12/3
f 23/13/4 12/14/4 4/15/4 21/16/4
f 17/17/5 10/18/5 3/19/5 15/20/5
f 25/21/6 22/22/6 1/23/6 13/24/6
f 13/24/5 1/23/5 10/18/5 17/17/5
f 19/25/7 2/26/7 12/14/7 23/13/7
f 14/27/3 7/28/3 11/10/3 18/9/3
f 22/29/8 5/30/8 11/2/8 24/1/8
f 8/31/3 14/27/3 18/9/3 9/32/3
f 2/26/5 13/24/5 17/17/5 12/14/5
f 19/33/9 25/21/9 13/24/9 2/26/9
f 12/14/5 17/17/5 15/20/5 4/15/5
f 9/32/3 18/9/3 16/12/3 6/34/3
f 21/35/10 26/5/10 14/8/10 8/36/10
f 4/15/11 15/20/11 26/5/11 21/35/11
f 6/34/12 16/12/12 25/21/12 19/33/12
f 1/23/13 22/29/13 24/1/13 10/18/13
f 6/37/14 19/25/14 23/13/14 9/38/14
f 16/12/15 5/11/15 22/22/15 25/21/15
f 9/38/16 23/13/16 21/16/16 8/39/16
f 15/20/17 3/19/17 20/6/17 26/5/17
f 10/18/18 24/1/18 20/4/18 3/19/18
o Cube.001
v 1.611205 1.736455 -2.044214
v 0.535543 0.644966 1.842242
v 1.270750 0.000000 -2.349112
v 1.270750 0.000000 2.349112
v 0.535514 1.929033 -0.924045
v 1.270750 -2.388974 0.000000
v 1.270750 2.388974 0.000000
v 1.270750 0.000000 0.000000
v 0.535543 0.967449 1.842242
v 0.535543 0.967449 -1.842242
v 1.603044 1.194487 -2.349112
v 1.270750 1.194487 0.000000
v 0.535543 -0.967449 -1.842242
v 1.603044 -1.194487 -2.349112
v 1.603044 -1.194487 2.349112
v 0.535543 -0.967449 1.842242
v 0.535543 -1.985068 0.000000
v 1.270750 -0.796325 -0.000000
v 0.535543 -1.934898 0.919496
v 1.603044 2.388974 1.172483
v 1.270750 0.000000 1.172483
v 0.535543 1.934898 0.919496
v 1.603044 -1.194487 1.172483
v 0.535543 0.644963 -1.842242
v 0.535543 -1.934898 -0.919496
v 1.603044 2.388974 -1.172483
v 1.270750 0.000000 -1.172483
v 1.603044 -1.194487 -1.172483
v 0.535543 -1.431668 -1.579234
v 1.603416 -1.752941 -2.026670
v 1.601963 -1.743675 2.032224
v 1.603001 -2.390145 1.172519
v 1.602988 -2.390114 -1.172520
v 0.535543 1.426822 1.582737
v 1.602818 1.193992 2.347486
v 1.270750 1.791730 0.000000
v 1.603044 1.194487 1.172483
v 1.603044 1.194487 -1.172483
v 1.598893 1.748922 2.022689
v 1.270750 0.000000 1.760798
v 1.603044 -1.194487 1.760798
v 1.603044 -2.074566 1.596043
v 0.535543 -1.431668 1.579234
v 0.535543 1.426822 -1.582737
v 1.270750 0.000000 -1.760798
v 1.603044 -1.194487 -1.760798
v 2.544596 -1.751245 3.134695
v 2.544596 -1.751245 1.564581
v 4.774974 -2.165913 -2.914844
v 4.774974 -2.580580 -2.694992
v 4.774974 -3.041536 -2.129787
v 4.774974 3.041536 2.129787
v 4.774974 2.580580 2.694992
v 4.774974 -2.165913 2.914844
v 4.774974 -2.580580 2.694992
v 4.774974 2.165913 -2.914844
v 3.486148 1.751245 -3.134695
v 4.774974 2.165913 2.914844
v 3.486148 1.751245 3.134695
v 3.486148 1.751245 2.349638
v 3.486148 -1.751245 2.349638
v 3.486148 -1.751245 3.134695
v 4.774974 -3.041536 2.129787
v 3.486148 -3.502491 1.564581
v 3.486148 -2.626868 1.564581
v 3.486148 2.626868 1.564581
v 2.748626 1.751245 1.564581
v 4.774974 3.041536 -2.129787
v 3.486148 3.502491 -1.564581
v 3.486148 1.751245 -2.349638
v 2.748626 1.751245 -1.564581
v 3.486148 -1.751245 -2.349638
v 2.748626 -1.751245 -1.564581
v 3.486148 -2.626868 -1.564581
v 3.486148 -3.502491 -1.564581
v 3.486148 2.626868 -1.564581
v 3.486148 -1.751245 -3.134695
v 2.748626 -1.751245 1.564581
v 3.486148 -2.396390 -2.239712
v 3.486148 -2.396390 2.239712
v 4.774974 2.580580 -2.694992
v 3.486148 3.502491 1.564581
v 3.486148 2.396390 -2.239712
v 3.486148 2.396390 2.239712
v 2.546518 -3.502050 1.565056
v 2.544986 -2.585168 2.692128
v 2.544596 -2.580580 -2.694992
v 2.559850 -3.499999 -1.566846
v 2.538244 -1.749470 -3.135812
v 2.544596 -1.751245 -1.564581
v 2.546518 3.502050 -1.565056
v 2.544596 1.751245 -3.134695
v 2.544986 2.585168 -2.692128
v 2.544596 1.751245 -1.564581
v 2.559850 3.499999 1.566846
v 2.544596 1.751245 1.564581
v 2.544596 2.580580 2.694992
v 2.538244 1.749470 3.135812
vn -1.0000 -0.0000 -0.0000
vn -0.4159 0.9017 -0.1179
vn 0.9621 -0.0001 0.2727
vn 0.9634 -0.2680 -0.0000
vn -1.0000 -0.0001 -0.0000
vn 0.9621 -0.0000 -0.2726
vn -0.0000 -0.7749 0.6321
vn 0.9621 -0.0000 -0.2727
vn -0.0000 -1.0000 -0.0000
vn -0.0000 1.0000 -0.0000
vn -0.0001 0.7751 0.6318
vn 0.0002 -0.4680 -0.8837
vn -0.0000 -0.0000 -1.0000
vn 0.0002 0.4680 0.8837
vn -0.0000 -0.0000 1.0000
vn -0.0000 0.7749 -0.6321
vn 0.3843 0.0002 -0.9232
vn 0.5090 0.8608 -0.0000
vn -0.7665 -0.5149 0.3838
vn 0.3844 -0.0000 0.9232
vn -0.7216 -0.3287 -0.6093
vn -0.7489 -0.5186 -0.4125
vn -0.7657 0.5115 -0.3900
vn -0.7491 0.5184 0.4124
vn -0.5113 -0.0605 0.8572
vn -0.4543 0.4476 0.7702
vn -0.4398 -0.7160 0.5421
vn 0.9634 0.2680 -0.0000
vn -0.5113 -0.0605 -0.8572
vn 0.9802 0.1636 0.1111
vn -0.4388 -0.8940 -0.0906
vn 0.9621 -0.0000 0.2727
vn 0.9809 -0.1364 0.1390
vn -0.4686 0.1035 0.8773
vn -0.4693 0.1028 -0.8770
vn -0.4581 -0.4417 -0.7713
vn -0.4585 -0.4410 0.7716
vn 0.9809 -0.1364 -0.1390
vn 0.9802 0.1636 -0.1111
vn -0.4779 0.8769 0.0510
vn -0.4388 -0.8940 0.0906
vn 0.0005 -0.7755 0.6314
vn -0.0001 0.4687 -0.8833
vn -0.4384 -0.7178 -0.5408
vn -0.4373 0.7168 -0.5432
vn -0.0001 -0.7751 -0.6318
vn -0.0016 -0.0009 1.0000
vn -0.4589 0.4391 -0.7724
vn 0.9621 -0.0000 0.2726
vn -0.4590 0.4370 0.7736
vn -0.0000 -0.4685 -0.8835
vn -0.0001 -0.4687 0.8833
vn -0.4376 0.7169 0.5427
vn -0.4375 -0.7173 0.5422
vn -0.0003 0.0002 1.0000
vn -0.0005 -0.7744 -0.6328
vn 0.3374 -0.6284 -0.7009
vn -0.0005 0.7744 0.6328
vn 0.4596 0.7205 -0.5193
vn 0.7846 0.4139 0.4616
vn 0.4765 -0.4580 0.7504
vn 0.4765 0.4580 0.7504
vn 0.3374 0.6284 -0.7009
vn 0.7846 -0.4139 0.4616
vn 0.4596 -0.7205 -0.5193
vn 0.7846 -0.4139 -0.4616
vn 0.4765 0.4580 -0.7504
vn 0.7846 0.4139 -0.4616
vn 0.4765 -0.4580 -0.7504
vn 0.4596 -0.7205 0.5193
vn 0.3374 0.6284 0.7009
vn 0.3374 -0.6284 0.7009
vn 0.4596 0.7205 0.5193
vn 0.0005 0.7755 -0.6314
vn -0.0002 -0.4684 0.8835
vn -0.0002 0.4684 -0.8835
vn -0.0000 0.4685 0.8835
vn 0.0013 1.0000 0.0008
vn -0.0003 -0.0002 -1.0000
vn 0.0013 -1.0000 -0.0008
vn -0.0016 0.0009 -1.0000
vn -0.7172 -0.3351 0.6110
vn 0.3844 -0.0000 -0.9232
vn -0.7542 -0.5138 0.4088
vn 0.5095 0.8605 -0.0008
vn 0.5090 -0.8608 -0.0000
vn -0.7159 -0.3495 -0.6045
vn -0.7618 -0.5191 -0.3876
vn 0.3831 0.0021 0.9237
vn 0.3844 -0.0001 0.9232
vn -0.7526 0.5113 -0.4149
vn -0.7178 0.3358 -0.6099
vn 0.3837 -0.0013 -0.9235
vn 0.5095 -0.8604 0.0005
vn -0.7197 0.3367 0.6072
vn -0.7622 0.5190 0.3870
vt 0.500000 0.250000
vt 0.437500 0.250000
vt 0.374901 0.249558
vt 0.875000 0.562302
vt 0.625000 0.625000
vt 0.625000 0.562610
vt 0.437500 0.562610
vt 0.458333 0.625000
vt 0.374940 0.562610
vt 0.562500 0.562610
vt 0.500000 0.562610
vt 0.500000 0.531305
vt 0.625000 0.187698
vt 0.624986 0.249875
vt 0.624986 0.000125
vt 0.374939 0.687390
vt 0.375000 0.625000
vt 0.374901 0.000442
vt 0.371759 0.125000
vt 0.375000 0.062610
vt 0.375000 0.687417
vt 0.375000 0.687390
vt 0.375000 0.718695
vt 0.593750 0.625000
vt 0.562500 0.687390
vt 0.562500 0.625000
vt 0.562500 0.718695
vt 0.500000 0.000000
vt 0.437500 0.000000
vt 0.500000 0.718695
vt 0.500000 0.687390
vt 0.437500 0.531305
vt 0.625000 0.718695
vt 0.625000 0.687532
vt 0.625000 0.750000
vt 0.437639 0.500000
vt 0.437500 0.500000
vt 0.406250 0.500000
vt 0.437500 0.687390
vt 0.406250 0.687390
vt 0.562361 0.750000
vt 0.562500 0.750000
vt 0.593750 0.750000
vt 0.593750 0.562610
vt 0.625000 0.562583
vt 0.625000 0.531305
vt 0.437500 0.718695
vt 0.375259 0.499565
vt 0.375000 0.500000
vt 0.375000 0.562468
vt 0.622656 0.499398
vt 0.625000 0.750539
vt 0.437500 1.000000
vt 0.437500 0.750000
vt 0.500000 0.750000
vt 0.500000 1.000000
vt 0.562539 0.750000
vt 0.624987 1.000000
vt 0.376969 0.750000
vt 0.125000 0.749579
vt 0.500000 0.500000
vt 0.500000 0.625000
vt 0.125000 0.625000
vt 0.125000 0.562610
vt 0.625000 0.062610
vt 0.562500 1.000000
vt 0.562500 0.250000
vt 0.562500 0.500000
vt 0.374891 1.000000
vt 0.593750 0.687390
vt 0.875000 0.687390
vt 0.625000 0.687390
vt 0.125000 0.687390
vt 0.375000 0.750000
vt 0.374641 0.750000
vt 0.625359 0.500000
vt 0.593750 0.500000
vt 0.125000 0.500421
vt 0.875000 0.500123
vt 0.375000 0.531305
vt 0.406250 0.562610
vt 0.375000 0.562610
vt 0.375000 0.187390
vt 0.406250 0.750000
vt 0.562500 0.000000
vt 0.875000 0.749877
vt 0.593750 0.718695
vt 0.406250 0.718695
vt 0.406250 0.531305
vt 0.593750 0.531305
vt 0.562500 0.531305
vt 0.625000 0.500000
s 0
f 50/40/19 39/41/19 55/42/19
f 31/43/20 33/44/20 52/45/20
f 54/46/21 44/47/21 59/48/21
f 64/49/22 53/50/22 71/51/22
f 31/52/23 70/53/23 60/54/23
f 44/47/24 58/55/24 32/56/24
f 69/57/19 43/58/19 45/59/19
f 111/60/25 90/61/25 89/62/25
f 62/63/26 63/64/26 38/65/26
f 122/64/27 93/64/27 86/66/27
f 28/67/19 69/57/19 42/68/19
f 63/64/22 66/69/22 47/70/22
f 116/46/28 99/46/28 98/71/28
f 78/72/29 121/73/29 123/74/29 79/74/29
f 115/75/30 103/76/30 75/77/30
f 74/78/31 104/78/31 91/79/31
f 124/80/32 85/81/32 84/82/32
f 120/49/33 97/49/33 102/83/33
f 117/84/34 95/45/34 94/85/34
f 58/55/35 74/78/35 111/60/35
f 67/86/36 74/78/36 49/78/36
f 58/55/37 111/60/37 68/62/37
f 59/48/38 116/46/38 54/46/38
f 56/87/39 115/75/39 113/88/39
f 56/87/40 113/88/40 114/89/40
f 52/45/41 117/84/41 27/90/41
f 65/91/42 123/74/42 121/73/42
f 42/92/43 41/93/43 30/94/43 28/95/43
f 61/96/44 65/91/44 60/97/44
f 68/62/45 57/98/45 69/99/45
f 41/93/46 67/86/46 66/69/46 30/94/46
f 29/100/47 40/76/47 39/41/47 50/40/47
f 43/58/19 69/57/19 28/67/19 60/54/19
f 44/47/48 54/46/48 53/50/48 34/101/48
f 32/56/49 43/102/49 51/103/49 59/48/49
f 62/63/50 64/49/50 52/45/50 33/44/50
f 38/65/51 34/101/51 53/50/51 64/49/51
f 48/104/19 31/52/19 60/54/19
f 35/105/52 28/95/52 30/94/52 61/96/52
f 30/94/22 66/69/22 63/64/22 61/96/22
f 29/100/53 50/40/53 36/106/53 37/107/53
f 56/87/54 55/42/54 39/41/54 40/76/54
f 70/53/19 36/106/19 50/40/19
f 42/92/55 69/108/55 57/98/55 41/93/55
f 122/64/31 92/109/31 93/64/31
f 47/70/56 34/101/56 38/65/56 63/64/56
f 44/47/26 49/78/26 58/55/26
f 47/70/57 49/78/57 44/47/57 34/101/57
f 48/110/58 46/111/58 33/44/58 31/43/58
f 45/112/59 43/102/59 32/56/59 58/55/59
f 63/64/26 62/63/26 33/44/26 46/111/26
f 81/113/60 112/114/60 111/60/60 89/62/60
f 83/107/61 118/107/61 119/115/61 82/116/61
f 60/54/19 70/53/19 50/40/19
f 51/103/62 55/117/62 56/87/62 59/48/62
f 31/43/63 52/45/63 27/90/63 70/118/63
f 54/46/46 72/71/46 71/51/46 53/50/46
f 55/42/19 43/58/19 60/54/19 50/40/19
f 77/119/64 114/89/64 113/88/64 76/88/64
f 100/120/65 116/46/65 114/89/65 101/121/65
f 43/58/19 55/42/19 51/122/19
f 27/90/66 37/107/66 36/106/66 70/53/66
f 59/48/67 44/47/67 32/56/67
f 64/49/50 62/63/50 38/65/50
f 61/96/68 60/97/68 35/105/68
f 74/78/28 87/86/28 104/78/28
f 76/88/69 113/88/69 115/75/69 75/77/69
f 88/93/70 73/93/70 112/114/70 80/123/70
f 35/124/19 60/54/19 28/67/19
f 67/86/46 49/78/46 47/70/46 66/69/46
f 65/91/71 46/111/71 48/110/71 60/125/71
f 68/62/72 69/99/72 45/112/72 58/55/72
f 95/45/73 117/84/73 120/49/73 102/83/73
f 114/89/74 77/119/74 101/121/74
f 72/71/46 40/76/46 29/100/46 71/51/46
f 71/51/22 29/100/22 37/107/22 64/49/22
f 79/74/75 84/82/75 110/126/75 78/72/75
f 121/73/76 78/72/76 108/111/76
f 88/93/77 80/123/77 106/127/77 87/86/77
f 99/46/78 100/120/78 105/128/78 98/71/78
f 102/83/79 109/129/79 94/85/79 95/45/79
f 100/120/80 101/121/80 77/119/80 105/128/80
f 81/113/81 89/62/81 106/127/81 80/123/81
f 97/49/82 96/130/82 109/129/82 102/83/82
f 85/81/83 86/66/83 110/126/83 84/82/83
f 110/126/84 86/66/84 93/64/84 92/109/84
f 89/62/85 90/61/85 91/79/85 106/127/85
f 106/127/86 91/79/86 104/78/86 87/86/86
f 78/72/87 110/126/87 92/109/87 108/111/87
f 109/129/88 96/130/88 83/107/88 82/116/88
f 105/128/89 77/119/89 76/88/89 75/77/89
f 109/129/90 82/116/90 107/131/90 94/85/90
f 105/128/91 75/77/91 103/76/91 98/71/91
f 107/131/92 119/115/92 117/84/92 94/85/92
f 112/114/93 81/113/93 80/123/93
f 96/130/27 120/49/27 118/107/27 83/107/27
f 119/115/94 107/131/94 82/116/94
f 79/74/95 123/74/95 124/80/95 84/82/95
f 116/46/33 100/120/33 99/46/33
f 103/76/96 115/75/96 116/46/96 98/71/96
f 90/61/97 111/60/97 74/78/97 91/79/97
f 87/86/28 74/78/28 73/93/28 88/93/28
f 85/81/98 124/80/98 122/64/98 86/66/98
f 92/109/99 122/64/99 121/73/99 108/111/99
f 120/49/27 96/130/27 97/49/27
f 74/78/36 67/86/36 41/93/36 73/93/36
f 73/93/100 41/93/100 57/98/100 112/114/100
f 58/55/101 49/78/101 74/78/101
f 112/114/102 57/98/102 68/62/102 111/60/102
f 116/46/103 115/75/103 40/76/103 72/71/103
f 120/49/104 64/49/104 37/107/104 118/107/104
f 56/87/105 40/76/105 115/75/105
f 72/71/36 54/46/36 116/46/36
f 59/48/106 56/87/106 114/89/106
f 59/48/107 114/89/107 116/46/107
f 120/49/108 117/84/108 52/45/108 64/49/108
f 27/90/109 117/84/109 119/115/109
f 118/107/110 37/107/110 27/90/110 119/115/110
f 122/64/111 63/64/111 46/111/111 121/73/111
f 122/64/112 124/80/112 61/96/112 63/64/112
f 124/80/113 123/74/113 65/91/113 61/96/113
f 46/111/114 65/91/114 121/73/114
