# Blender 4.0.2
# www.blender.org
mtllib skaal.mtl
o Cube
v 1.000000 2.373597 -1.002693
v 1.000000 2.373597 1.001835
v -1.173226 2.340981 -0.932304
v -1.178968 2.340981 0.942224
v 1.000000 3.320609 -0.896280
v 1.000000 3.320609 0.895422
v -0.970256 3.170309 -0.902336
v -0.970256 3.170309 0.899983
v -1.277016 2.347168 -0.006609
v 1.453437 3.161825 -0.011092
v -0.969415 3.364331 -0.010138
v 3.027585 1.539919 0.354890
v 1.453437 3.161825 0.442165
v -1.266172 2.340981 0.494048
v -0.969415 3.324564 0.494048
v -1.266172 2.340981 -0.505952
v -0.969415 3.324564 -0.505952
v 3.027585 1.539919 -0.366739
v 1.453437 3.161825 -0.453686
v 1.000000 2.110989 -0.896280
v 1.000000 2.110989 0.895422
v -0.934710 1.733701 -0.911115
v -0.940452 1.733701 0.921035
v -1.085299 1.791227 0.001315
v 1.622244 1.463567 -0.011092
v 1.622244 1.463567 0.442165
v -1.060955 1.773400 0.497578
v -1.060955 1.773400 -0.502422
v 1.622244 1.463567 -0.453686
v -1.136662 2.817326 0.929246
v -1.148375 2.817326 -0.931055
v 1.000000 2.847103 1.106582
v 1.000000 2.847103 -1.107440
v 3.156512 1.869236 -0.010219
v -1.199086 2.837210 -0.010138
v 2.836352 1.812348 0.321763
v -1.199086 2.837210 0.494048
v -1.199086 2.837210 -0.505952
v 2.867426 1.820526 -0.329094
v 0.008673 3.359724 1.088223
v 0.008304 3.353927 -1.086596
v 0.255851 3.540762 -0.009632
v 0.215717 3.506127 0.465362
v 0.215717 3.506127 -0.476813
v -0.045622 2.982258 -1.289968
v -0.062713 2.982822 1.293709
v -0.479277 3.362194 1.103338
v -0.490362 2.986964 1.253580
v -0.478543 3.356397 -1.101655
v -0.395831 3.622616 -0.010138
v -0.405362 3.574212 0.494048
v -0.405362 3.574212 -0.505952
v -0.509745 2.986373 -1.249756
v 0.407102 2.341215 -1.097124
v 0.518493 3.296870 -0.857720
v 0.830888 3.401377 -0.011092
v 0.830888 3.401377 0.442165
v 0.830888 3.401377 -0.453686
v 0.412233 1.884826 -1.026289
v 0.339797 2.825932 -1.076811
v 0.344638 2.341215 1.096266
v 0.512721 3.296870 0.855408
v 0.365160 1.898426 1.025431
v 0.290800 2.825932 1.076080
v -0.836770 2.332298 1.071888
v -0.739689 3.250228 0.927117
v -0.685079 1.748687 1.058803
v -0.782621 2.837083 1.039661
v -0.828970 2.332298 -1.024292
v -0.745546 3.250228 -0.928904
v -0.697915 3.512821 -0.010138
v -0.706193 3.473643 0.494048
v -0.706193 3.473643 -0.505952
v -0.661662 1.763463 -1.011149
v -0.814884 2.837083 -1.028120
v 0.825630 1.599145 0.771390
v -0.774720 1.449646 0.847152
v 0.825630 1.585546 -0.774356
v -0.774720 1.464423 -0.849505
v -1.029342 1.615603 0.000000
v -0.943883 1.552748 0.472235
v -0.943883 1.552748 -0.479432
v 0.187275 1.520854 -0.933946
v 0.171884 1.534073 0.933258
v -0.404071 1.443839 0.967952
v -0.396415 1.460661 -0.952542
v 2.662586 2.034384 0.190950
v 3.081903 1.593039 0.185597
v -0.301368 4.207506 -4.219203
v -0.301368 4.004808 -4.306606
v -0.517335 4.207506 -4.213466
v -0.517335 4.004808 -4.265773
v -0.510449 3.606130 2.252526
v -0.159135 3.606130 2.256828
v -0.494733 3.263812 2.306267
v -0.187040 3.263736 2.367566
v -0.148860 3.260886 -2.327267
v -0.156719 3.576991 -2.232692
v -0.510019 3.576991 -2.228390
v -0.517878 3.260886 -2.282131
v -0.210575 3.783233 -3.214605
v -0.542759 4.084663 -3.115727
v -0.213438 4.084663 -3.120030
v -0.545622 3.783233 -3.169469
v -0.531904 4.097190 2.933461
v -0.532437 3.729910 2.946082
v -0.271687 3.755013 3.093676
v -0.214040 4.115385 2.984685
v -0.247955 3.434197 -1.122766
v -0.093746 3.624210 -0.010018
v -0.118578 3.586671 0.486356
v -0.118578 3.586671 -0.498203
v -0.276638 2.945837 -1.348418
v -0.248183 3.434861 1.124870
v -0.276942 2.946722 1.353577
v 3.075925 1.576420 -0.230472
v 2.724375 2.041674 -0.226403
v -0.411277 4.256391 -4.390154
v -0.411277 4.027592 -4.464313
v -0.335662 3.199314 2.348445
v -0.329425 3.678746 2.263213
v -0.333369 3.192389 -2.311153
v -0.333369 3.645876 -2.224087
v -0.378098 3.723987 -3.198491
v -0.378098 4.144431 -3.111424
v -0.400380 3.839811 3.091913
v -0.359778 4.177371 2.961120
v -1.046324 3.024481 0.927117
v 1.000000 3.083856 1.001002
v 1.983209 2.653309 -0.011092
v -1.095791 3.128769 -0.010138
v 1.830162 2.653309 0.442165
v -1.095791 3.108885 0.494048
v -1.095791 3.108885 -0.505952
v 1.830162 2.653309 -0.453686
v -1.052180 3.024481 -0.928904
v 1.000000 3.083856 -1.001860
v 0.017499 3.155716 -1.241756
v 0.011500 3.156380 1.245498
v -0.542977 3.153097 1.226731
v -0.548605 3.152433 -1.222885
v 0.411085 3.090515 -0.991343
v 0.383701 3.090515 0.990613
v -0.773854 3.061712 1.014406
v -0.801641 3.061712 -1.014511
v -0.385843 4.054000 3.068702
v -0.280347 4.043971 3.103720
v -0.295482 4.141991 -4.439593
v -0.527071 4.141991 -4.414874
v -0.104766 3.443550 2.339259
v -0.562535 3.424723 2.263441
v -0.568323 3.419133 -2.253109
v -0.098416 3.419133 -2.282131
v -0.591290 3.934209 -3.140447
v -0.164907 3.934209 -3.169469
v -0.210313 3.960143 3.115520
v -0.568690 3.908916 2.951900
v -0.417052 4.211548 -4.828959
v -0.507852 4.026928 3.052277
v 3.205858 1.403424 -0.010219
v 2.416539 2.149038 -0.422835
v 2.155678 2.311991 -0.440516
v 1.129691 2.669537 -0.977559
v 2.626720 2.176969 -0.011092
v 1.167863 2.644401 0.958885
v 2.401208 2.135928 0.414693
v 2.129135 2.329918 0.431686
v 1.348941 2.932940 0.805118
v 1.392311 2.600402 0.835789
v 1.068611 2.807717 0.912377
v 1.679842 2.393611 0.522739
v 1.687096 2.872593 0.527376
v 1.725017 2.381099 -0.515348
v 1.676287 2.877268 -0.539890
v 1.378034 2.613501 -0.847567
v 1.307858 2.950708 -0.832336
v 1.132043 2.833028 -0.911161
v 1.156711 2.489324 0.442644
v 1.220793 2.440887 -0.319519
v 2.596390 1.797293 -0.009415
v 2.276230 1.740405 0.322567
v 2.307304 1.748583 -0.328290
v 2.102464 1.962441 0.191754
v 2.521781 1.521096 0.186401
v 2.515803 1.504477 -0.229668
v 2.164253 1.969731 -0.225599
v 1.021522 2.796638 0.364033
v 1.230112 2.809016 -0.351686
v 1.815018 1.474041 0.430193
v 2.199188 1.494912 0.406335
v 2.468278 1.509532 0.389624
v 1.827655 1.455766 0.299051
v 2.495227 1.458027 0.259664
v 3.076347 1.577592 -0.201125
v 3.102505 1.482556 -0.216909
v 3.124504 1.406513 -0.010264
v 3.145207 1.449861 0.113995
v 3.056556 1.453035 -0.131030
v 3.014127 1.473737 -0.183507
v 3.068416 1.461945 0.139762
v 2.592709 1.516292 -0.393644
v 2.885210 1.532184 -0.375547
v 2.876320 1.485966 -0.268006
v 2.609975 1.484484 -0.315182
v 2.023733 1.485380 -0.428846
v 2.205041 1.495230 -0.417629
v 1.989430 1.449622 -0.269755
v 2.243818 1.439961 -0.263759
v 3.210749 1.308852 -0.002309
v 1.819909 1.310588 0.438103
v 2.204080 1.430073 0.414245
v 2.473170 1.417977 0.397534
v 1.832546 1.292314 0.306961
v 2.500118 1.294575 0.267575
v 2.307371 1.316348 0.357640
v 2.064478 1.301315 0.368275
v 3.107397 1.319104 -0.208999
v 3.129395 1.311941 -0.002354
v 3.150099 1.286409 0.121906
v 3.061448 1.289582 -0.123120
v 3.019019 1.310285 -0.175596
v 3.073307 1.298493 0.147672
v 2.597600 1.352840 -0.385734
v 2.890101 1.368731 -0.367637
v 2.881211 1.322514 -0.260096
v 2.614867 1.321032 -0.307272
v 2.028624 1.321928 -0.420936
v 2.209933 1.384365 -0.409719
v 1.994321 1.286170 -0.261845
v 2.248709 1.336075 -0.255849
vn 0.0995 -0.4632 -0.8806
vn -0.8507 0.4906 0.1888
vn -0.2906 -0.1280 -0.9483
vn 0.2094 -0.2326 0.9498
vn -0.9152 -0.3487 0.2022
vn -0.4086 0.8384 0.3607
vn -0.0474 0.4875 0.8718
vn -0.3045 0.4136 -0.8581
vn 0.6640 0.5239 -0.5335
vn 0.7407 0.6602 0.1250
vn -0.4852 0.8719 -0.0654
vn -0.9425 -0.3332 -0.0251
vn -0.8721 0.4885 -0.0294
vn 0.0054 -0.9892 0.1463
vn 0.1014 -0.4699 0.8769
vn 0.6671 0.5296 0.5239
vn -0.4853 0.8720 0.0643
vn -0.9427 -0.3328 0.0253
vn -0.8721 0.4885 0.0289
vn -0.8446 0.5006 -0.1899
vn -0.9105 -0.3486 -0.2224
vn -0.4118 0.8351 -0.3647
vn 0.7404 0.6599 -0.1280
vn 0.0084 -0.9894 -0.1450
vn -0.8293 -0.5089 -0.2309
vn -0.9125 -0.4031 0.0699
vn -0.9129 -0.4024 -0.0689
vn -0.8343 -0.5091 0.2116
vn 0.2766 -0.3380 0.8996
vn -0.2613 -0.3807 -0.8870
vn -0.9814 0.0930 -0.1678
vn -0.9893 0.1455 0.0116
vn 0.3947 0.1182 0.9112
vn -0.9893 0.1454 -0.0117
vn 0.3818 0.1017 -0.9186
vn -0.2688 0.0081 -0.9632
vn 0.0500 -0.0850 0.9951
vn -0.9793 0.1124 0.1684
vn 0.2078 0.9176 -0.3389
vn 0.2016 0.9784 0.0452
vn 0.2015 0.9784 -0.0461
vn 0.4670 0.4358 -0.7694
vn -0.9260 0.2115 0.3126
vn 0.2133 0.9193 0.3308
vn -0.6587 0.4724 0.5856
vn -0.1725 0.9502 -0.2597
vn -0.0227 0.9961 0.0848
vn -0.0226 0.9960 -0.0862
vn 0.9685 -0.2127 -0.1294
vn -0.1635 0.9539 0.2515
vn 0.2303 -0.2314 -0.9452
vn 0.1862 0.9769 0.1046
vn -0.0478 0.4834 -0.8741
vn 0.3591 0.9333 -0.0000
vn 0.1872 0.9765 -0.1067
vn 0.2926 -0.3461 -0.8914
vn 0.0542 -0.0839 -0.9950
vn 0.4897 0.4016 0.7739
vn -0.3261 0.0755 0.9423
vn -0.3294 -0.4777 0.8144
vn -0.2901 0.3941 0.8721
vn -0.4020 -0.1577 0.9020
vn -0.4092 0.8529 -0.3242
vn -0.3285 0.9415 0.0760
vn -0.3284 0.9414 -0.0772
vn -0.6255 0.5115 -0.5892
vn -0.4206 0.8517 0.3125
vn -0.6773 -0.2418 0.6948
vn 0.5478 0.5468 0.6332
vn -0.1382 0.0240 0.9901
vn -0.0623 0.4752 -0.8777
vn -0.6871 0.7186 -0.1072
vn -0.9654 0.2606 -0.0002
vn 0.3276 0.9417 0.0763
vn -0.2962 -0.9325 -0.2067
vn 0.9766 0.2018 0.0750
vn 0.2849 -0.9218 0.2629
vn -0.9408 -0.3302 0.0759
vn -0.3100 0.9266 -0.2128
vn -0.3112 -0.9219 -0.2307
vn 0.3139 0.9381 0.1465
vn -0.9495 0.3004 0.0904
vn 0.9458 -0.2755 -0.1716
vn -0.3688 -0.8057 -0.4634
vn 0.3347 0.8278 0.4502
vn -0.9356 0.2925 0.1979
vn 0.9499 -0.2351 -0.2060
vn 0.9850 0.1719 -0.0122
vn -0.1035 -0.7931 0.6003
vn -0.9482 -0.2724 0.1636
vn -0.2743 0.7763 -0.5675
vn 0.3576 0.7725 -0.5247
vn -0.2626 -0.7629 0.5908
vn -0.3204 0.8180 0.4778
vn 0.2531 -0.8251 -0.5052
vn -0.3251 0.9250 0.1965
vn 0.2613 -0.9283 -0.2646
vn 0.3074 0.9370 -0.1660
vn -0.3425 -0.9121 0.2253
vn 0.2381 -0.9453 -0.2231
vn -0.3186 0.9432 0.0942
vn 0.6706 0.7317 -0.1224
vn -0.6692 -0.1591 0.7259
vn 0.2701 0.9184 0.2892
vn 0.2349 0.9679 -0.0891
vn 0.2348 0.9681 0.0876
vn 0.2778 0.9123 -0.3010
vn -0.1579 0.1170 0.9805
vn 0.0587 0.7451 0.6644
vn 0.6872 -0.6105 -0.3938
vn -0.9605 0.2171 -0.1740
vn 0.8861 -0.3251 0.3303
vn 0.9496 0.2956 0.1044
vn -0.9534 -0.2716 -0.1315
vn 0.9711 0.2268 -0.0743
vn -0.9650 -0.2564 -0.0542
vn -0.9629 0.2570 -0.0830
vn 0.9116 -0.3613 0.1959
vn -0.9725 -0.2194 -0.0777
vn -0.7300 -0.5892 -0.3463
vn -0.3021 0.1229 0.9453
vn -0.3510 0.7132 0.6068
vn -0.0696 -0.0850 0.9939
vn -0.6206 0.0404 -0.7831
vn -0.3091 0.1307 0.9420
vn 0.5542 0.0422 0.8313
vn -0.0349 0.3602 -0.9322
vn 0.9534 0.2981 -0.0463
vn -0.6398 0.0306 0.7679
vn 0.5289 0.0951 -0.8433
vn 0.5094 0.7746 -0.3749
vn -0.9126 0.3809 -0.1483
vn -0.9388 0.3444 0.0068
vn 0.6624 -0.0747 0.7454
vn -0.9388 0.3444 -0.0069
vn 0.5381 0.7307 0.4201
vn 0.5046 0.4896 -0.7111
vn -0.3066 0.1122 -0.9452
vn -0.0327 0.3612 0.9319
vn -0.9145 0.3705 0.1624
vn 0.3937 0.9125 -0.1111
vn 0.1920 0.1457 -0.9705
vn 0.4168 0.8866 0.2004
vn 0.5127 0.4862 0.7076
vn 0.6121 0.7202 -0.3266
vn 0.5177 0.7942 -0.3181
vn 0.5553 0.7467 0.3661
vn 0.6144 0.7198 0.3232
vn 0.4027 -0.9152 -0.0161
vn 0.4936 -0.0159 0.8696
vn -0.3784 -0.0711 -0.9229
vn 0.6515 0.0698 -0.7554
vn 0.6545 0.2764 -0.7037
vn 0.6802 0.5510 0.4834
vn 0.2190 0.1713 0.9606
vn 0.4950 0.0056 -0.8689
vn 0.2229 0.8950 -0.3864
vn 0.5492 0.7321 0.4029
vn 0.5929 -0.7934 -0.1380
vn -0.2507 0.1349 0.9586
vn -0.1526 -0.0073 0.9883
vn 0.3980 0.7923 -0.4624
vn -0.3692 -0.0821 -0.9257
vn 0.2488 0.8963 0.3671
vn 0.3139 -0.3233 0.8927
vn 0.0593 -0.4718 -0.8797
vn 0.0039 -0.1748 0.9846
vn 0.3133 -0.3121 -0.8969
vn -0.0312 -0.1878 -0.9817
vn 0.8190 0.4238 -0.3867
vn -0.0427 0.3427 0.9385
vn 0.5351 0.6151 -0.5791
vn 0.9881 0.1534 0.0107
vn 0.4588 0.6894 0.5606
vn 0.0871 -0.6866 -0.7218
vn -0.1274 0.9911 -0.0378
vn 0.0518 -0.3929 0.9181
vn 0.0855 -0.6569 0.7491
vn 0.0811 -0.8856 0.4572
vn 0.0451 -0.9634 0.2642
vn 0.9199 0.3825 -0.0867
vn 0.9839 -0.0401 -0.1742
vn 0.0295 -0.9601 -0.2782
vn 0.0489 0.0711 0.9963
vn 0.9947 0.0345 0.0970
vn 0.9714 0.0269 -0.2358
vn -0.7762 0.0073 0.6304
vn 0.0642 -0.0463 -0.9969
vn 0.8940 0.3012 -0.3317
vn 0.8405 0.5003 0.2079
vn -0.0281 0.0580 0.9979
vn -0.8716 -0.0030 0.4901
vn 0.2149 -0.5266 0.8225
vn 0.0376 -0.4177 0.9078
vn 0.1329 -0.9854 -0.1064
vn -0.1229 -0.9759 -0.1801
vn 0.0739 -0.9184 -0.3886
vn 0.2509 -0.9340 -0.2544
vn -0.3481 -0.0557 -0.9358
vn -0.1745 0.0424 0.9837
vn 0.0612 0.1042 0.9927
vn 0.3254 0.0554 0.9439
vn -0.9781 -0.0192 0.2074
vn -0.9953 -0.0342 -0.0911
vn -0.9378 -0.0566 -0.3427
vn -0.0587 -0.0500 -0.9970
vn 0.0725 -0.0548 -0.9959
vn 0.8950 0.0066 -0.4461
vn 0.9840 0.0484 0.1715
vn 0.8992 0.0607 0.4332
vn -0.9749 -0.0398 -0.2191
vn -0.0168 -0.9999 0.0018
vt 0.625000 0.561756
vt 0.625000 0.500000
vt 0.625000 0.063244
vt 0.625000 0.000000
vt 0.625000 0.000000
vt 0.625000 0.280782
vt 0.625000 0.250000
vt 0.625000 0.280782
vt 0.625000 0.813436
vt 0.625000 0.750000
vt 0.625000 0.813437
vt 0.844218 0.686756
vt 0.875000 0.686756
vt 0.875000 0.750000
vt 0.844218 0.750000
vt 0.625000 0.813437
vt 0.625000 0.813436
vt 0.625000 0.280782
vt 0.625000 0.280782
vt 0.625000 0.541954
vt 0.625000 0.519098
vt 0.625000 0.500000
vt 0.625000 0.686756
vt 0.625000 0.623512
vt 0.625000 0.686756
vt 0.844218 0.561756
vt 0.875000 0.561756
vt 0.875000 0.623512
vt 0.844218 0.623512
vt 0.625000 0.188244
vt 0.625000 0.126488
vt 0.625000 0.126488
vt 0.625000 0.649372
vt 0.625000 0.645029
vt 0.625000 0.686756
vt 0.625000 0.665710
vt 0.625000 0.667668
vt 0.625000 0.727832
vt 0.625000 0.706349
vt 0.844218 0.500000
vt 0.875000 0.500000
vt 0.625000 0.585939
vt 0.625000 0.585720
vt 0.625000 0.574613
vt 0.625000 0.580304
vt 0.625000 0.587709
vt 0.625000 0.593731
vt 0.625000 0.602744
vt 0.625000 0.188244
vt 0.625000 0.813436
vt 0.625000 0.280782
vt 0.625000 0.736761
vt 0.625000 0.511451
vt 0.625000 0.280782
vt 0.625000 0.813437
vt 0.688437 0.500000
vt 0.751873 0.500000
vt 0.751873 0.561756
vt 0.688437 0.561756
vt 0.688436 0.623512
vt 0.751873 0.623512
vt 0.751873 0.686756
vt 0.688437 0.686756
vt 0.625000 0.436564
vt 0.625000 0.373127
vt 0.668981 0.877935
vt 0.813437 0.750000
vt 0.625000 0.938436
vt 0.751873 0.750000
vt 0.688437 0.750000
vt 0.625000 0.969218
vt 0.625000 0.938436
vt 0.625000 0.969218
vt 0.782655 0.500000
vt 0.813436 0.500000
vt 0.813436 0.561756
vt 0.782655 0.561756
vt 0.782655 0.623512
vt 0.813436 0.623512
vt 0.813437 0.686756
vt 0.782655 0.686756
vt 0.625000 0.373127
vt 0.625000 0.373127
vt 0.813437 0.750000
vt 0.782655 0.750000
vt 0.625000 0.436564
vt 0.625000 0.436564
vt 0.625000 0.436564
vt 0.625000 0.436564
vt 0.625000 0.876873
vt 0.625000 1.000000
vt 0.625000 0.969218
vt 0.625000 0.969218
vt 0.625000 0.969218
vt 0.625000 0.311564
vt 0.625000 0.311564
vt 0.625000 0.907655
vt 0.625000 0.876873
vt 0.625000 0.876873
vt 0.649488 0.869282
vt 0.625000 0.658631
vt 0.625000 0.342345
vt 0.625000 0.342345
vt 0.625000 0.311563
vt 0.625000 0.311564
vt 0.782655 0.500000
vt 0.751873 0.500000
vt 0.782655 0.500000
vt 0.625000 0.342345
vt 0.625000 0.311564
vt 0.625000 0.342345
vt 0.625000 0.876873
vt 0.625000 0.876873
vt 0.625000 0.907654
vt 0.813436 0.750000
vt 0.782655 0.750000
vt 0.625000 0.311564
vt 0.813437 0.500000
vt 0.665393 0.867287
vt 0.625000 0.588614
vt 0.625000 0.561756
vt 0.625000 0.737982
vt 0.625000 0.657672
vt 0.625000 0.523627
vt 0.625000 0.546739
vt 0.625000 0.703658
vt 0.625000 0.725085
vt 0.625000 0.721315
vt 0.625000 0.529294
vt 0.625000 0.530173
vt 0.625000 0.514147
vt 0.625000 0.720782
vt 0.625000 0.582973
vt 0.625000 0.588310
vt 0.625000 0.678694
vt 0.625000 0.678190
s 0
usemtl Material
f 29/1/1 20/2/1 1/2/1 18/1/1 202/1/1 201/1/1 206/1/1 205/1/1
f 133/3/2 128/4/2 8/5/2 15/3/2
f 74/6/3 22/7/3 3/7/3 69/8/3
f 63/9/4 21/10/4 2/10/4 61/11/4
f 27/3/5 23/5/5 4/5/5 14/3/5
f 72/12/6 15/13/6 8/14/6 66/15/6
f 143/16/7 129/10/7 6/10/7 62/17/7
f 145/18/8 136/7/8 7/7/8 70/19/8
f 135/1/9 174/20/9 176/21/9 137/22/9 5/2/9 19/1/9
f 132/23/10 130/24/10 10/24/10 13/25/10
f 73/26/11 17/27/11 11/28/11 71/29/11
f 28/30/12 24/31/12 9/31/12 16/30/12
f 134/30/13 131/31/13 11/32/13 17/30/13
f 26/25/14 25/24/14 196/24/14 200/33/14 197/34/14 12/35/14 191/25/14 193/36/14 192/37/14 189/25/14
f 21/10/15 26/25/15 189/25/15 190/25/15 191/25/15 12/35/15 2/10/15
f 129/10/16 168/38/16 172/39/16 132/23/16 13/25/16 6/10/16
f 71/29/17 11/28/17 15/13/17 72/12/17
f 24/31/18 27/3/18 14/3/18 9/31/18
f 131/31/19 133/3/19 15/3/19 11/32/19
f 136/7/20 134/30/20 17/30/20 7/7/20
f 22/7/21 28/30/21 16/30/21 3/7/21
f 70/40/22 7/41/22 17/27/22 73/26/22
f 130/24/23 135/1/23 19/1/23 10/24/23
f 25/24/24 29/1/24 205/1/24 207/42/24 208/43/24 206/1/24 201/1/24 204/44/24 203/45/24 202/1/24 18/1/24 195/46/24 199/47/24 198/48/24 196/24/24
f 79/7/25 82/49/25 28/30/25 22/7/25
f 80/32/26 81/3/26 27/3/26 24/31/26
f 82/49/27 80/32/27 24/31/27 28/30/27
f 81/3/28 77/5/28 23/5/28 27/3/28
f 84/50/29 76/10/29 21/10/29 63/9/29
f 86/51/30 79/7/30 22/7/30 74/6/30
f 3/7/31 16/30/31 38/30/31 31/7/31
f 9/31/32 14/3/32 37/3/32 35/31/32
f 2/10/33 12/35/33 36/25/33 165/52/33 32/10/33
f 16/30/34 9/31/34 35/31/34 38/30/34
f 18/1/35 1/2/35 33/2/35 163/53/35 39/1/35
f 69/8/36 3/7/36 31/7/36 75/54/36
f 61/11/37 2/10/37 32/10/37 64/55/37
f 14/3/38 4/5/38 30/5/38 37/3/38
f 55/56/39 41/57/39 44/58/39 58/59/39
f 56/60/40 42/61/40 43/62/40 57/63/40
f 58/59/41 44/58/41 42/61/41 56/60/41
f 142/64/42 138/65/42 41/65/42 55/64/42
f 159/66/43 105/67/43 157/68/43
f 57/63/44 43/62/44 40/69/44 62/70/44
f 144/71/45 140/68/45 47/72/45 66/73/45
f 109/74/46 49/75/46 52/76/46 112/77/46
f 110/78/47 50/79/47 51/80/47 111/81/47
f 112/77/48 52/76/48 50/79/48 110/78/48
f 155/82/49 101/83/49 90/82/49 148/65/49
f 111/81/50 51/80/50 47/84/50 114/85/50
f 20/2/51 59/86/51 54/87/51 1/2/51
f 13/25/52 57/63/52 62/70/52 6/10/52
f 137/22/53 142/64/53 55/64/53 5/2/53
f 19/1/54 58/59/54 56/60/54 10/24/54
f 10/24/54 56/60/54 57/63/54 13/25/54
f 5/2/55 55/56/55 58/59/55 19/1/55
f 78/2/56 83/88/56 59/86/56 20/2/56
f 1/2/57 54/87/57 60/89/57 33/2/57
f 139/90/58 143/16/58 62/17/58 40/90/58
f 4/91/59 65/92/59 68/71/59 30/91/59
f 77/91/60 85/93/60 67/94/60 23/91/60
f 128/91/61 144/71/61 66/73/61 8/91/61
f 23/91/62 67/94/62 65/92/62 4/91/62
f 49/75/63 70/40/63 73/26/63 52/76/63
f 50/79/64 71/29/64 72/12/64 51/80/64
f 52/76/65 73/26/65 71/29/65 50/79/65
f 141/95/66 145/18/66 70/19/66 49/96/66
f 51/80/67 72/12/67 66/15/67 47/84/67
f 126/97/68 159/66/68 157/68/68
f 156/98/69 108/99/69 147/100/69
f 126/97/70 156/98/70 147/100/70
f 36/25/71 88/101/71 184/101/71 181/25/71
f 158/102/72 149/96/72 91/96/72 118/103/72
f 154/104/73 102/105/73 91/96/73 149/96/73
f 125/106/74 103/107/74 89/57/74 118/108/74
f 124/109/75 104/95/75 92/110/75 119/111/75
f 139/90/76 40/90/76 94/112/76 150/113/76
f 115/97/77 46/90/77 96/113/77 120/114/77
f 140/68/78 48/68/78 95/68/78 151/68/78
f 114/85/79 47/84/79 93/115/79 121/116/79
f 113/102/80 53/110/80 100/96/80 122/102/80
f 109/74/81 41/57/81 98/57/81 123/108/81
f 141/95/82 49/96/82 99/96/82 152/117/82
f 138/65/83 45/82/83 97/82/83 153/65/83
f 122/102/84 100/96/84 104/95/84 124/109/84
f 123/108/85 98/57/85 103/107/85 125/106/85
f 152/117/86 99/96/86 102/105/86 154/104/86
f 153/65/87 97/82/87 101/83/87 155/82/87
f 150/113/88 94/112/88 108/99/88 156/98/88
f 120/114/89 96/113/89 107/98/89 126/97/89
f 151/68/90 95/68/90 106/68/90 157/68/90
f 121/116/91 93/115/91 105/67/91 127/85/91
f 94/69/92 121/116/92 127/85/92 108/69/92
f 95/68/93 120/114/93 126/97/93 106/68/93
f 99/118/94 123/108/94 125/106/94 102/118/94
f 97/82/95 122/102/95 124/109/95 101/83/95
f 49/75/96 109/74/96 123/108/96 99/118/96
f 45/82/97 113/102/97 122/102/97 97/82/97
f 40/69/98 114/85/98 121/116/98 94/69/98
f 48/68/99 115/97/99 120/114/99 95/68/99
f 101/83/100 124/109/100 119/111/100 90/82/100
f 102/118/101 125/106/101 118/108/101 91/75/101
f 148/65/102 158/102/102 118/103/102 89/65/102
f 157/68/103 106/68/103 126/97/103
f 43/62/104 111/81/104 114/85/104 40/69/104
f 44/58/105 112/77/105 110/78/105 42/61/105
f 42/61/106 110/78/106 111/81/106 43/62/106
f 41/57/107 109/74/107 112/77/107 44/58/107
f 126/97/108 146/119/108 159/66/108
f 147/100/109 108/99/109 127/85/109 146/119/109
f 90/82/110 119/111/110 158/102/110 148/65/110
f 93/72/111 151/68/111 157/68/111 105/72/111
f 96/113/112 150/113/112 156/98/112 107/98/112
f 98/82/113 153/65/113 155/82/113 103/82/113
f 100/96/114 152/117/114 154/104/114 104/95/114
f 41/65/115 138/65/115 153/65/115 98/82/115
f 53/110/116 141/95/116 152/117/116 100/96/116
f 47/72/117 140/68/117 151/68/117 93/72/117
f 46/90/118 139/90/118 150/113/118 96/113/118
f 104/95/119 154/104/119 149/96/119 92/110/119
f 119/111/120 92/110/120 149/96/120 158/102/120
f 126/97/121 147/100/121 146/119/121
f 146/119/122 127/85/122 105/67/122 159/66/122
f 126/97/123 107/98/123 156/98/123
f 53/110/124 75/54/124 145/18/124 141/95/124
f 30/91/125 68/71/125 144/71/125 128/91/125
f 46/90/126 64/55/126 143/16/126 139/90/126
f 33/2/127 60/89/127 142/64/127 137/22/127
f 103/82/128 155/82/128 148/65/128 89/65/128
f 68/71/129 48/68/129 140/68/129 144/71/129
f 60/89/130 45/82/130 138/65/130 142/64/130
f 34/24/131 117/120/131 39/1/131 161/121/131 164/24/131
f 31/7/132 38/30/132 134/30/132 136/7/132
f 35/31/133 37/3/133 133/3/133 131/31/133
f 32/10/134 170/122/134 168/38/134 129/10/134
f 38/30/135 35/31/135 131/31/135 134/30/135
f 36/25/136 87/123/136 34/24/136 164/24/136 166/25/136
f 39/1/137 163/53/137 161/121/137
f 75/54/138 31/7/138 136/7/138 145/18/138
f 64/55/139 32/10/139 129/10/139 143/16/139
f 37/3/140 30/5/140 128/4/140 133/3/140
f 161/121/141 163/53/141 175/124/141 173/125/141 162/121/141
f 162/121/142 173/125/142 135/1/142
f 167/25/143 171/126/143 169/127/143 165/52/143 166/25/143
f 166/25/144 165/52/144 36/25/144
f 164/24/145 162/121/145 135/1/145 130/24/145
f 162/121/146 164/24/146 161/121/146
f 166/25/147 164/24/147 167/25/147
f 167/25/148 164/24/148 130/24/148 132/23/148
f 168/38/149 170/122/149 187/128/149
f 172/39/150 171/126/150 132/23/150
f 174/20/151 179/129/151 188/130/151
f 176/21/152 177/131/152 33/2/152 137/22/152
f 33/2/153 177/131/153 175/124/153 163/53/153
f 170/122/154 32/10/154 165/52/154 169/127/154
f 132/23/155 171/126/155 167/25/155
f 135/1/156 173/125/156 174/20/156
f 171/126/157 178/132/157 169/127/157
f 177/131/158 179/129/158 175/124/158
f 177/131/159 176/21/159 188/130/159
f 172/39/160 187/128/160 178/132/160
f 178/132/161 171/126/161 172/39/161
f 169/127/162 178/132/162 170/122/162
f 179/129/163 174/20/163 173/125/163
f 175/124/164 179/129/164 173/125/164
f 21/10/165 76/10/165 26/25/165
f 87/123/166 36/25/166 181/25/166 183/123/166
f 46/90/167 115/97/167 48/68/167 68/71/167 65/92/167 67/94/167 85/93/167 84/50/167 63/9/167 61/11/167 64/55/167
f 20/2/168 29/1/168 78/2/168
f 113/102/169 45/82/169 60/89/169 54/87/169 59/86/169 83/88/169 86/51/169 74/6/169 69/8/169 75/54/169 53/110/169
f 39/1/170 116/133/170 194/134/170 195/46/170 18/1/170
f 116/133/171 39/1/171 182/1/171 185/133/171
f 182/1/172 186/120/172 180/24/172
f 181/25/173 184/101/173 185/133/173 182/1/173 180/24/173
f 180/24/174 183/123/174 181/25/174
f 117/120/175 34/24/175 180/24/175 186/120/175
f 88/101/176 194/134/176 116/133/176 185/133/176 184/101/176
f 39/1/177 117/120/177 186/120/177 182/1/177
f 34/24/178 87/123/178 183/123/178 180/24/178
f 210/25/179 213/37/179 214/36/179 212/25/179 215/135/179 211/25/179 216/136/179
f 187/128/180 172/39/180 168/38/180
f 178/132/181 187/128/181 170/122/181
f 188/130/182 179/129/182 177/131/182
f 188/130/183 176/21/183 174/20/183
f 190/25/184 189/25/184 210/25/184 211/25/184
f 202/1/185 203/45/185 225/45/185 224/1/185
f 206/1/186 208/43/186 230/43/186 228/1/186
f 198/48/187 199/47/187 221/47/187 220/48/187
f 201/1/188 202/1/188 224/1/188 223/1/188
f 195/46/189 194/134/189 160/24/189
f 160/24/190 194/134/190 88/101/190 36/25/190 12/35/190 197/34/190
f 208/43/191 207/42/191 229/42/191 230/43/191
f 196/24/192 198/48/192 220/48/192 218/24/192
f 216/136/193 211/25/193 210/25/193
f 211/25/194 215/135/194 212/25/194
f 218/24/195 220/48/195 221/47/195 217/46/195 209/24/195
f 219/34/196 222/33/196 218/24/196 209/24/196
f 224/1/197 225/45/197 226/44/197 223/1/197
f 228/1/198 230/43/198 229/42/198 227/1/198
f 199/47/199 195/46/199 217/46/199 221/47/199
f 203/45/200 204/44/200 226/44/200 225/45/200
f 191/25/201 190/25/201 211/25/201 212/25/201
f 197/34/202 200/33/202 222/33/202 219/34/202
f 204/44/203 201/1/203 223/1/203 226/44/203
f 189/25/204 192/37/204 213/37/204 210/25/204
f 200/33/205 196/24/205 218/24/205 222/33/205
f 192/37/206 193/36/206 214/36/206 213/37/206
f 205/1/207 206/1/207 228/1/207 227/1/207
f 195/46/208 160/24/208 209/24/208 217/46/208
f 193/36/209 191/25/209 212/25/209 214/36/209
f 160/24/210 197/34/210 219/34/210 209/24/210
f 207/42/211 205/1/211 227/1/211 229/42/211
f 29/1/212 25/24/212 26/25/212 76/10/212 84/50/212 85/93/212 77/5/212 81/3/212 80/32/212 82/49/212 79/7/212 86/51/212 83/88/212 78/2/212
